G04 #@! TF.GenerationSoftware,KiCad,Pcbnew,(5.0.2)-1*
G04 #@! TF.CreationDate,2019-02-10T20:46:42+01:00*
G04 #@! TF.ProjectId,Rectifier,52656374-6966-4696-9572-2e6b69636164,rev?*
G04 #@! TF.SameCoordinates,PX5c55b20PY6f109e0*
G04 #@! TF.FileFunction,Copper,L1,Top*
G04 #@! TF.FilePolarity,Positive*
%FSLAX46Y46*%
G04 Gerber Fmt 4.6, Leading zero omitted, Abs format (unit mm)*
G04 Created by KiCad (PCBNEW (5.0.2)-1) date 02/10/19 20:46:42*
%MOMM*%
%LPD*%
G01*
G04 APERTURE LIST*
G04 #@! TA.AperFunction,ComponentPad*
%ADD10C,6.000000*%
G04 #@! TD*
G04 #@! TA.AperFunction,ComponentPad*
%ADD11R,2.400000X2.400000*%
G04 #@! TD*
G04 #@! TA.AperFunction,ComponentPad*
%ADD12C,2.400000*%
G04 #@! TD*
G04 #@! TA.AperFunction,ComponentPad*
%ADD13R,1.700000X1.700000*%
G04 #@! TD*
G04 #@! TA.AperFunction,ComponentPad*
%ADD14O,1.700000X1.700000*%
G04 #@! TD*
G04 #@! TA.AperFunction,Conductor*
%ADD15C,0.100000*%
G04 #@! TD*
G04 #@! TA.AperFunction,SMDPad,CuDef*
%ADD16C,2.500000*%
G04 #@! TD*
G04 #@! TA.AperFunction,SMDPad,CuDef*
%ADD17C,1.600000*%
G04 #@! TD*
G04 #@! TA.AperFunction,SMDPad,CuDef*
%ADD18C,1.150000*%
G04 #@! TD*
G04 #@! TA.AperFunction,SMDPad,CuDef*
%ADD19R,2.300000X3.500000*%
G04 #@! TD*
G04 #@! TA.AperFunction,ComponentPad*
%ADD20C,3.200000*%
G04 #@! TD*
G04 #@! TA.AperFunction,SMDPad,CuDef*
%ADD21R,1.550000X0.600000*%
G04 #@! TD*
G04 #@! TA.AperFunction,SMDPad,CuDef*
%ADD22R,0.400000X2.000000*%
G04 #@! TD*
G04 #@! TA.AperFunction,SMDPad,CuDef*
%ADD23C,1.525000*%
G04 #@! TD*
G04 #@! TA.AperFunction,ViaPad*
%ADD24C,2.500000*%
G04 #@! TD*
G04 #@! TA.AperFunction,Conductor*
%ADD25C,0.600000*%
G04 #@! TD*
G04 #@! TA.AperFunction,Conductor*
%ADD26C,0.400000*%
G04 #@! TD*
G04 #@! TA.AperFunction,Conductor*
%ADD27C,2.000000*%
G04 #@! TD*
G04 #@! TA.AperFunction,Conductor*
%ADD28C,0.254000*%
G04 #@! TD*
G04 APERTURE END LIST*
D10*
G04 #@! TO.P,REF\002A\002A,1*
G04 #@! TO.N,N/C*
X42170000Y32540000D03*
G04 #@! TD*
D11*
G04 #@! TO.P,J4,1*
G04 #@! TO.N,Net-(C4-Pad1)*
X4830000Y24360000D03*
D12*
G04 #@! TO.P,J4,2*
G04 #@! TO.N,GND*
X4830000Y20860000D03*
G04 #@! TD*
D13*
G04 #@! TO.P,J2,1*
G04 #@! TO.N,Net-(J2-Pad1)*
X27170000Y32360000D03*
D14*
G04 #@! TO.P,J2,2*
G04 #@! TO.N,Net-(J2-Pad2)*
X24630000Y32360000D03*
G04 #@! TO.P,J2,3*
G04 #@! TO.N,VCC*
X22090000Y32360000D03*
G04 #@! TO.P,J2,4*
G04 #@! TO.N,GND*
X19550000Y32360000D03*
G04 #@! TD*
D15*
G04 #@! TO.N,Net-(C1-Pad1)*
G04 #@! TO.C,C2*
G36*
X21754504Y16758796D02*
X21778773Y16755196D01*
X21802571Y16749235D01*
X21825671Y16740970D01*
X21847849Y16730480D01*
X21868893Y16717867D01*
X21888598Y16703253D01*
X21906777Y16686777D01*
X21923253Y16668598D01*
X21937867Y16648893D01*
X21950480Y16627849D01*
X21960970Y16605671D01*
X21969235Y16582571D01*
X21975196Y16558773D01*
X21978796Y16534504D01*
X21980000Y16510000D01*
X21980000Y12610000D01*
X21978796Y12585496D01*
X21975196Y12561227D01*
X21969235Y12537429D01*
X21960970Y12514329D01*
X21950480Y12492151D01*
X21937867Y12471107D01*
X21923253Y12451402D01*
X21906777Y12433223D01*
X21888598Y12416747D01*
X21868893Y12402133D01*
X21847849Y12389520D01*
X21825671Y12379030D01*
X21802571Y12370765D01*
X21778773Y12364804D01*
X21754504Y12361204D01*
X21730000Y12360000D01*
X19730000Y12360000D01*
X19705496Y12361204D01*
X19681227Y12364804D01*
X19657429Y12370765D01*
X19634329Y12379030D01*
X19612151Y12389520D01*
X19591107Y12402133D01*
X19571402Y12416747D01*
X19553223Y12433223D01*
X19536747Y12451402D01*
X19522133Y12471107D01*
X19509520Y12492151D01*
X19499030Y12514329D01*
X19490765Y12537429D01*
X19484804Y12561227D01*
X19481204Y12585496D01*
X19480000Y12610000D01*
X19480000Y16510000D01*
X19481204Y16534504D01*
X19484804Y16558773D01*
X19490765Y16582571D01*
X19499030Y16605671D01*
X19509520Y16627849D01*
X19522133Y16648893D01*
X19536747Y16668598D01*
X19553223Y16686777D01*
X19571402Y16703253D01*
X19591107Y16717867D01*
X19612151Y16730480D01*
X19634329Y16740970D01*
X19657429Y16749235D01*
X19681227Y16755196D01*
X19705496Y16758796D01*
X19730000Y16760000D01*
X21730000Y16760000D01*
X21754504Y16758796D01*
X21754504Y16758796D01*
G37*
D16*
G04 #@! TD*
G04 #@! TO.P,C2,1*
G04 #@! TO.N,Net-(C1-Pad1)*
X20730000Y14560000D03*
D15*
G04 #@! TO.N,GND*
G04 #@! TO.C,C2*
G36*
X21754504Y8358796D02*
X21778773Y8355196D01*
X21802571Y8349235D01*
X21825671Y8340970D01*
X21847849Y8330480D01*
X21868893Y8317867D01*
X21888598Y8303253D01*
X21906777Y8286777D01*
X21923253Y8268598D01*
X21937867Y8248893D01*
X21950480Y8227849D01*
X21960970Y8205671D01*
X21969235Y8182571D01*
X21975196Y8158773D01*
X21978796Y8134504D01*
X21980000Y8110000D01*
X21980000Y4210000D01*
X21978796Y4185496D01*
X21975196Y4161227D01*
X21969235Y4137429D01*
X21960970Y4114329D01*
X21950480Y4092151D01*
X21937867Y4071107D01*
X21923253Y4051402D01*
X21906777Y4033223D01*
X21888598Y4016747D01*
X21868893Y4002133D01*
X21847849Y3989520D01*
X21825671Y3979030D01*
X21802571Y3970765D01*
X21778773Y3964804D01*
X21754504Y3961204D01*
X21730000Y3960000D01*
X19730000Y3960000D01*
X19705496Y3961204D01*
X19681227Y3964804D01*
X19657429Y3970765D01*
X19634329Y3979030D01*
X19612151Y3989520D01*
X19591107Y4002133D01*
X19571402Y4016747D01*
X19553223Y4033223D01*
X19536747Y4051402D01*
X19522133Y4071107D01*
X19509520Y4092151D01*
X19499030Y4114329D01*
X19490765Y4137429D01*
X19484804Y4161227D01*
X19481204Y4185496D01*
X19480000Y4210000D01*
X19480000Y8110000D01*
X19481204Y8134504D01*
X19484804Y8158773D01*
X19490765Y8182571D01*
X19499030Y8205671D01*
X19509520Y8227849D01*
X19522133Y8248893D01*
X19536747Y8268598D01*
X19553223Y8286777D01*
X19571402Y8303253D01*
X19591107Y8317867D01*
X19612151Y8330480D01*
X19634329Y8340970D01*
X19657429Y8349235D01*
X19681227Y8355196D01*
X19705496Y8358796D01*
X19730000Y8360000D01*
X21730000Y8360000D01*
X21754504Y8358796D01*
X21754504Y8358796D01*
G37*
D16*
G04 #@! TD*
G04 #@! TO.P,C2,2*
G04 #@! TO.N,GND*
X20730000Y6160000D03*
D11*
G04 #@! TO.P,C1,1*
G04 #@! TO.N,Net-(C1-Pad1)*
X18560000Y18430000D03*
D12*
G04 #@! TO.P,C1,2*
G04 #@! TO.N,GND*
X26060000Y18430000D03*
G04 #@! TD*
D15*
G04 #@! TO.N,VCC*
G04 #@! TO.C,C7*
G36*
X37604504Y15308796D02*
X37628773Y15305196D01*
X37652571Y15299235D01*
X37675671Y15290970D01*
X37697849Y15280480D01*
X37718893Y15267867D01*
X37738598Y15253253D01*
X37756777Y15236777D01*
X37773253Y15218598D01*
X37787867Y15198893D01*
X37800480Y15177849D01*
X37810970Y15155671D01*
X37819235Y15132571D01*
X37825196Y15108773D01*
X37828796Y15084504D01*
X37830000Y15060000D01*
X37830000Y12060000D01*
X37828796Y12035496D01*
X37825196Y12011227D01*
X37819235Y11987429D01*
X37810970Y11964329D01*
X37800480Y11942151D01*
X37787867Y11921107D01*
X37773253Y11901402D01*
X37756777Y11883223D01*
X37738598Y11866747D01*
X37718893Y11852133D01*
X37697849Y11839520D01*
X37675671Y11829030D01*
X37652571Y11820765D01*
X37628773Y11814804D01*
X37604504Y11811204D01*
X37580000Y11810000D01*
X36480000Y11810000D01*
X36455496Y11811204D01*
X36431227Y11814804D01*
X36407429Y11820765D01*
X36384329Y11829030D01*
X36362151Y11839520D01*
X36341107Y11852133D01*
X36321402Y11866747D01*
X36303223Y11883223D01*
X36286747Y11901402D01*
X36272133Y11921107D01*
X36259520Y11942151D01*
X36249030Y11964329D01*
X36240765Y11987429D01*
X36234804Y12011227D01*
X36231204Y12035496D01*
X36230000Y12060000D01*
X36230000Y15060000D01*
X36231204Y15084504D01*
X36234804Y15108773D01*
X36240765Y15132571D01*
X36249030Y15155671D01*
X36259520Y15177849D01*
X36272133Y15198893D01*
X36286747Y15218598D01*
X36303223Y15236777D01*
X36321402Y15253253D01*
X36341107Y15267867D01*
X36362151Y15280480D01*
X36384329Y15290970D01*
X36407429Y15299235D01*
X36431227Y15305196D01*
X36455496Y15308796D01*
X36480000Y15310000D01*
X37580000Y15310000D01*
X37604504Y15308796D01*
X37604504Y15308796D01*
G37*
D17*
G04 #@! TD*
G04 #@! TO.P,C7,1*
G04 #@! TO.N,VCC*
X37030000Y13560000D03*
D15*
G04 #@! TO.N,GND*
G04 #@! TO.C,C7*
G36*
X37604504Y9708796D02*
X37628773Y9705196D01*
X37652571Y9699235D01*
X37675671Y9690970D01*
X37697849Y9680480D01*
X37718893Y9667867D01*
X37738598Y9653253D01*
X37756777Y9636777D01*
X37773253Y9618598D01*
X37787867Y9598893D01*
X37800480Y9577849D01*
X37810970Y9555671D01*
X37819235Y9532571D01*
X37825196Y9508773D01*
X37828796Y9484504D01*
X37830000Y9460000D01*
X37830000Y6460000D01*
X37828796Y6435496D01*
X37825196Y6411227D01*
X37819235Y6387429D01*
X37810970Y6364329D01*
X37800480Y6342151D01*
X37787867Y6321107D01*
X37773253Y6301402D01*
X37756777Y6283223D01*
X37738598Y6266747D01*
X37718893Y6252133D01*
X37697849Y6239520D01*
X37675671Y6229030D01*
X37652571Y6220765D01*
X37628773Y6214804D01*
X37604504Y6211204D01*
X37580000Y6210000D01*
X36480000Y6210000D01*
X36455496Y6211204D01*
X36431227Y6214804D01*
X36407429Y6220765D01*
X36384329Y6229030D01*
X36362151Y6239520D01*
X36341107Y6252133D01*
X36321402Y6266747D01*
X36303223Y6283223D01*
X36286747Y6301402D01*
X36272133Y6321107D01*
X36259520Y6342151D01*
X36249030Y6364329D01*
X36240765Y6387429D01*
X36234804Y6411227D01*
X36231204Y6435496D01*
X36230000Y6460000D01*
X36230000Y9460000D01*
X36231204Y9484504D01*
X36234804Y9508773D01*
X36240765Y9532571D01*
X36249030Y9555671D01*
X36259520Y9577849D01*
X36272133Y9598893D01*
X36286747Y9618598D01*
X36303223Y9636777D01*
X36321402Y9653253D01*
X36341107Y9667867D01*
X36362151Y9680480D01*
X36384329Y9690970D01*
X36407429Y9699235D01*
X36431227Y9705196D01*
X36455496Y9708796D01*
X36480000Y9710000D01*
X37580000Y9710000D01*
X37604504Y9708796D01*
X37604504Y9708796D01*
G37*
D17*
G04 #@! TD*
G04 #@! TO.P,C7,2*
G04 #@! TO.N,GND*
X37030000Y7960000D03*
D15*
G04 #@! TO.N,GND*
G04 #@! TO.C,C3*
G36*
X23704505Y22408796D02*
X23728773Y22405196D01*
X23752572Y22399235D01*
X23775671Y22390970D01*
X23797850Y22380480D01*
X23818893Y22367868D01*
X23838599Y22353253D01*
X23856777Y22336777D01*
X23873253Y22318599D01*
X23887868Y22298893D01*
X23900480Y22277850D01*
X23910970Y22255671D01*
X23919235Y22232572D01*
X23925196Y22208773D01*
X23928796Y22184505D01*
X23930000Y22160001D01*
X23930000Y21259999D01*
X23928796Y21235495D01*
X23925196Y21211227D01*
X23919235Y21187428D01*
X23910970Y21164329D01*
X23900480Y21142150D01*
X23887868Y21121107D01*
X23873253Y21101401D01*
X23856777Y21083223D01*
X23838599Y21066747D01*
X23818893Y21052132D01*
X23797850Y21039520D01*
X23775671Y21029030D01*
X23752572Y21020765D01*
X23728773Y21014804D01*
X23704505Y21011204D01*
X23680001Y21010000D01*
X23029999Y21010000D01*
X23005495Y21011204D01*
X22981227Y21014804D01*
X22957428Y21020765D01*
X22934329Y21029030D01*
X22912150Y21039520D01*
X22891107Y21052132D01*
X22871401Y21066747D01*
X22853223Y21083223D01*
X22836747Y21101401D01*
X22822132Y21121107D01*
X22809520Y21142150D01*
X22799030Y21164329D01*
X22790765Y21187428D01*
X22784804Y21211227D01*
X22781204Y21235495D01*
X22780000Y21259999D01*
X22780000Y22160001D01*
X22781204Y22184505D01*
X22784804Y22208773D01*
X22790765Y22232572D01*
X22799030Y22255671D01*
X22809520Y22277850D01*
X22822132Y22298893D01*
X22836747Y22318599D01*
X22853223Y22336777D01*
X22871401Y22353253D01*
X22891107Y22367868D01*
X22912150Y22380480D01*
X22934329Y22390970D01*
X22957428Y22399235D01*
X22981227Y22405196D01*
X23005495Y22408796D01*
X23029999Y22410000D01*
X23680001Y22410000D01*
X23704505Y22408796D01*
X23704505Y22408796D01*
G37*
D18*
G04 #@! TD*
G04 #@! TO.P,C3,2*
G04 #@! TO.N,GND*
X23355000Y21710000D03*
D15*
G04 #@! TO.N,VCC*
G04 #@! TO.C,C3*
G36*
X25754505Y22408796D02*
X25778773Y22405196D01*
X25802572Y22399235D01*
X25825671Y22390970D01*
X25847850Y22380480D01*
X25868893Y22367868D01*
X25888599Y22353253D01*
X25906777Y22336777D01*
X25923253Y22318599D01*
X25937868Y22298893D01*
X25950480Y22277850D01*
X25960970Y22255671D01*
X25969235Y22232572D01*
X25975196Y22208773D01*
X25978796Y22184505D01*
X25980000Y22160001D01*
X25980000Y21259999D01*
X25978796Y21235495D01*
X25975196Y21211227D01*
X25969235Y21187428D01*
X25960970Y21164329D01*
X25950480Y21142150D01*
X25937868Y21121107D01*
X25923253Y21101401D01*
X25906777Y21083223D01*
X25888599Y21066747D01*
X25868893Y21052132D01*
X25847850Y21039520D01*
X25825671Y21029030D01*
X25802572Y21020765D01*
X25778773Y21014804D01*
X25754505Y21011204D01*
X25730001Y21010000D01*
X25079999Y21010000D01*
X25055495Y21011204D01*
X25031227Y21014804D01*
X25007428Y21020765D01*
X24984329Y21029030D01*
X24962150Y21039520D01*
X24941107Y21052132D01*
X24921401Y21066747D01*
X24903223Y21083223D01*
X24886747Y21101401D01*
X24872132Y21121107D01*
X24859520Y21142150D01*
X24849030Y21164329D01*
X24840765Y21187428D01*
X24834804Y21211227D01*
X24831204Y21235495D01*
X24830000Y21259999D01*
X24830000Y22160001D01*
X24831204Y22184505D01*
X24834804Y22208773D01*
X24840765Y22232572D01*
X24849030Y22255671D01*
X24859520Y22277850D01*
X24872132Y22298893D01*
X24886747Y22318599D01*
X24903223Y22336777D01*
X24921401Y22353253D01*
X24941107Y22367868D01*
X24962150Y22380480D01*
X24984329Y22390970D01*
X25007428Y22399235D01*
X25031227Y22405196D01*
X25055495Y22408796D01*
X25079999Y22410000D01*
X25730001Y22410000D01*
X25754505Y22408796D01*
X25754505Y22408796D01*
G37*
D18*
G04 #@! TD*
G04 #@! TO.P,C3,1*
G04 #@! TO.N,VCC*
X25405000Y21710000D03*
D15*
G04 #@! TO.N,Net-(C4-Pad1)*
G04 #@! TO.C,C4*
G36*
X21304505Y26733796D02*
X21328773Y26730196D01*
X21352572Y26724235D01*
X21375671Y26715970D01*
X21397850Y26705480D01*
X21418893Y26692868D01*
X21438599Y26678253D01*
X21456777Y26661777D01*
X21473253Y26643599D01*
X21487868Y26623893D01*
X21500480Y26602850D01*
X21510970Y26580671D01*
X21519235Y26557572D01*
X21525196Y26533773D01*
X21528796Y26509505D01*
X21530000Y26485001D01*
X21530000Y25834999D01*
X21528796Y25810495D01*
X21525196Y25786227D01*
X21519235Y25762428D01*
X21510970Y25739329D01*
X21500480Y25717150D01*
X21487868Y25696107D01*
X21473253Y25676401D01*
X21456777Y25658223D01*
X21438599Y25641747D01*
X21418893Y25627132D01*
X21397850Y25614520D01*
X21375671Y25604030D01*
X21352572Y25595765D01*
X21328773Y25589804D01*
X21304505Y25586204D01*
X21280001Y25585000D01*
X20379999Y25585000D01*
X20355495Y25586204D01*
X20331227Y25589804D01*
X20307428Y25595765D01*
X20284329Y25604030D01*
X20262150Y25614520D01*
X20241107Y25627132D01*
X20221401Y25641747D01*
X20203223Y25658223D01*
X20186747Y25676401D01*
X20172132Y25696107D01*
X20159520Y25717150D01*
X20149030Y25739329D01*
X20140765Y25762428D01*
X20134804Y25786227D01*
X20131204Y25810495D01*
X20130000Y25834999D01*
X20130000Y26485001D01*
X20131204Y26509505D01*
X20134804Y26533773D01*
X20140765Y26557572D01*
X20149030Y26580671D01*
X20159520Y26602850D01*
X20172132Y26623893D01*
X20186747Y26643599D01*
X20203223Y26661777D01*
X20221401Y26678253D01*
X20241107Y26692868D01*
X20262150Y26705480D01*
X20284329Y26715970D01*
X20307428Y26724235D01*
X20331227Y26730196D01*
X20355495Y26733796D01*
X20379999Y26735000D01*
X21280001Y26735000D01*
X21304505Y26733796D01*
X21304505Y26733796D01*
G37*
D18*
G04 #@! TD*
G04 #@! TO.P,C4,1*
G04 #@! TO.N,Net-(C4-Pad1)*
X20830000Y26160000D03*
D15*
G04 #@! TO.N,Net-(C1-Pad1)*
G04 #@! TO.C,C4*
G36*
X21304505Y24683796D02*
X21328773Y24680196D01*
X21352572Y24674235D01*
X21375671Y24665970D01*
X21397850Y24655480D01*
X21418893Y24642868D01*
X21438599Y24628253D01*
X21456777Y24611777D01*
X21473253Y24593599D01*
X21487868Y24573893D01*
X21500480Y24552850D01*
X21510970Y24530671D01*
X21519235Y24507572D01*
X21525196Y24483773D01*
X21528796Y24459505D01*
X21530000Y24435001D01*
X21530000Y23784999D01*
X21528796Y23760495D01*
X21525196Y23736227D01*
X21519235Y23712428D01*
X21510970Y23689329D01*
X21500480Y23667150D01*
X21487868Y23646107D01*
X21473253Y23626401D01*
X21456777Y23608223D01*
X21438599Y23591747D01*
X21418893Y23577132D01*
X21397850Y23564520D01*
X21375671Y23554030D01*
X21352572Y23545765D01*
X21328773Y23539804D01*
X21304505Y23536204D01*
X21280001Y23535000D01*
X20379999Y23535000D01*
X20355495Y23536204D01*
X20331227Y23539804D01*
X20307428Y23545765D01*
X20284329Y23554030D01*
X20262150Y23564520D01*
X20241107Y23577132D01*
X20221401Y23591747D01*
X20203223Y23608223D01*
X20186747Y23626401D01*
X20172132Y23646107D01*
X20159520Y23667150D01*
X20149030Y23689329D01*
X20140765Y23712428D01*
X20134804Y23736227D01*
X20131204Y23760495D01*
X20130000Y23784999D01*
X20130000Y24435001D01*
X20131204Y24459505D01*
X20134804Y24483773D01*
X20140765Y24507572D01*
X20149030Y24530671D01*
X20159520Y24552850D01*
X20172132Y24573893D01*
X20186747Y24593599D01*
X20203223Y24611777D01*
X20221401Y24628253D01*
X20241107Y24642868D01*
X20262150Y24655480D01*
X20284329Y24665970D01*
X20307428Y24674235D01*
X20331227Y24680196D01*
X20355495Y24683796D01*
X20379999Y24685000D01*
X21280001Y24685000D01*
X21304505Y24683796D01*
X21304505Y24683796D01*
G37*
D18*
G04 #@! TD*
G04 #@! TO.P,C4,2*
G04 #@! TO.N,Net-(C1-Pad1)*
X20830000Y24110000D03*
D15*
G04 #@! TO.N,GND*
G04 #@! TO.C,C5*
G36*
X35004505Y29508796D02*
X35028773Y29505196D01*
X35052572Y29499235D01*
X35075671Y29490970D01*
X35097850Y29480480D01*
X35118893Y29467868D01*
X35138599Y29453253D01*
X35156777Y29436777D01*
X35173253Y29418599D01*
X35187868Y29398893D01*
X35200480Y29377850D01*
X35210970Y29355671D01*
X35219235Y29332572D01*
X35225196Y29308773D01*
X35228796Y29284505D01*
X35230000Y29260001D01*
X35230000Y28359999D01*
X35228796Y28335495D01*
X35225196Y28311227D01*
X35219235Y28287428D01*
X35210970Y28264329D01*
X35200480Y28242150D01*
X35187868Y28221107D01*
X35173253Y28201401D01*
X35156777Y28183223D01*
X35138599Y28166747D01*
X35118893Y28152132D01*
X35097850Y28139520D01*
X35075671Y28129030D01*
X35052572Y28120765D01*
X35028773Y28114804D01*
X35004505Y28111204D01*
X34980001Y28110000D01*
X34329999Y28110000D01*
X34305495Y28111204D01*
X34281227Y28114804D01*
X34257428Y28120765D01*
X34234329Y28129030D01*
X34212150Y28139520D01*
X34191107Y28152132D01*
X34171401Y28166747D01*
X34153223Y28183223D01*
X34136747Y28201401D01*
X34122132Y28221107D01*
X34109520Y28242150D01*
X34099030Y28264329D01*
X34090765Y28287428D01*
X34084804Y28311227D01*
X34081204Y28335495D01*
X34080000Y28359999D01*
X34080000Y29260001D01*
X34081204Y29284505D01*
X34084804Y29308773D01*
X34090765Y29332572D01*
X34099030Y29355671D01*
X34109520Y29377850D01*
X34122132Y29398893D01*
X34136747Y29418599D01*
X34153223Y29436777D01*
X34171401Y29453253D01*
X34191107Y29467868D01*
X34212150Y29480480D01*
X34234329Y29490970D01*
X34257428Y29499235D01*
X34281227Y29505196D01*
X34305495Y29508796D01*
X34329999Y29510000D01*
X34980001Y29510000D01*
X35004505Y29508796D01*
X35004505Y29508796D01*
G37*
D18*
G04 #@! TD*
G04 #@! TO.P,C5,2*
G04 #@! TO.N,GND*
X34655000Y28810000D03*
D15*
G04 #@! TO.N,Net-(C4-Pad1)*
G04 #@! TO.C,C5*
G36*
X32954505Y29508796D02*
X32978773Y29505196D01*
X33002572Y29499235D01*
X33025671Y29490970D01*
X33047850Y29480480D01*
X33068893Y29467868D01*
X33088599Y29453253D01*
X33106777Y29436777D01*
X33123253Y29418599D01*
X33137868Y29398893D01*
X33150480Y29377850D01*
X33160970Y29355671D01*
X33169235Y29332572D01*
X33175196Y29308773D01*
X33178796Y29284505D01*
X33180000Y29260001D01*
X33180000Y28359999D01*
X33178796Y28335495D01*
X33175196Y28311227D01*
X33169235Y28287428D01*
X33160970Y28264329D01*
X33150480Y28242150D01*
X33137868Y28221107D01*
X33123253Y28201401D01*
X33106777Y28183223D01*
X33088599Y28166747D01*
X33068893Y28152132D01*
X33047850Y28139520D01*
X33025671Y28129030D01*
X33002572Y28120765D01*
X32978773Y28114804D01*
X32954505Y28111204D01*
X32930001Y28110000D01*
X32279999Y28110000D01*
X32255495Y28111204D01*
X32231227Y28114804D01*
X32207428Y28120765D01*
X32184329Y28129030D01*
X32162150Y28139520D01*
X32141107Y28152132D01*
X32121401Y28166747D01*
X32103223Y28183223D01*
X32086747Y28201401D01*
X32072132Y28221107D01*
X32059520Y28242150D01*
X32049030Y28264329D01*
X32040765Y28287428D01*
X32034804Y28311227D01*
X32031204Y28335495D01*
X32030000Y28359999D01*
X32030000Y29260001D01*
X32031204Y29284505D01*
X32034804Y29308773D01*
X32040765Y29332572D01*
X32049030Y29355671D01*
X32059520Y29377850D01*
X32072132Y29398893D01*
X32086747Y29418599D01*
X32103223Y29436777D01*
X32121401Y29453253D01*
X32141107Y29467868D01*
X32162150Y29480480D01*
X32184329Y29490970D01*
X32207428Y29499235D01*
X32231227Y29505196D01*
X32255495Y29508796D01*
X32279999Y29510000D01*
X32930001Y29510000D01*
X32954505Y29508796D01*
X32954505Y29508796D01*
G37*
D18*
G04 #@! TD*
G04 #@! TO.P,C5,1*
G04 #@! TO.N,Net-(C4-Pad1)*
X32605000Y28810000D03*
D15*
G04 #@! TO.N,Net-(C6-Pad1)*
G04 #@! TO.C,C6*
G36*
X33204505Y20908796D02*
X33228773Y20905196D01*
X33252572Y20899235D01*
X33275671Y20890970D01*
X33297850Y20880480D01*
X33318893Y20867868D01*
X33338599Y20853253D01*
X33356777Y20836777D01*
X33373253Y20818599D01*
X33387868Y20798893D01*
X33400480Y20777850D01*
X33410970Y20755671D01*
X33419235Y20732572D01*
X33425196Y20708773D01*
X33428796Y20684505D01*
X33430000Y20660001D01*
X33430000Y19759999D01*
X33428796Y19735495D01*
X33425196Y19711227D01*
X33419235Y19687428D01*
X33410970Y19664329D01*
X33400480Y19642150D01*
X33387868Y19621107D01*
X33373253Y19601401D01*
X33356777Y19583223D01*
X33338599Y19566747D01*
X33318893Y19552132D01*
X33297850Y19539520D01*
X33275671Y19529030D01*
X33252572Y19520765D01*
X33228773Y19514804D01*
X33204505Y19511204D01*
X33180001Y19510000D01*
X32529999Y19510000D01*
X32505495Y19511204D01*
X32481227Y19514804D01*
X32457428Y19520765D01*
X32434329Y19529030D01*
X32412150Y19539520D01*
X32391107Y19552132D01*
X32371401Y19566747D01*
X32353223Y19583223D01*
X32336747Y19601401D01*
X32322132Y19621107D01*
X32309520Y19642150D01*
X32299030Y19664329D01*
X32290765Y19687428D01*
X32284804Y19711227D01*
X32281204Y19735495D01*
X32280000Y19759999D01*
X32280000Y20660001D01*
X32281204Y20684505D01*
X32284804Y20708773D01*
X32290765Y20732572D01*
X32299030Y20755671D01*
X32309520Y20777850D01*
X32322132Y20798893D01*
X32336747Y20818599D01*
X32353223Y20836777D01*
X32371401Y20853253D01*
X32391107Y20867868D01*
X32412150Y20880480D01*
X32434329Y20890970D01*
X32457428Y20899235D01*
X32481227Y20905196D01*
X32505495Y20908796D01*
X32529999Y20910000D01*
X33180001Y20910000D01*
X33204505Y20908796D01*
X33204505Y20908796D01*
G37*
D18*
G04 #@! TD*
G04 #@! TO.P,C6,1*
G04 #@! TO.N,Net-(C6-Pad1)*
X32855000Y20210000D03*
D15*
G04 #@! TO.N,Net-(C6-Pad2)*
G04 #@! TO.C,C6*
G36*
X35254505Y20908796D02*
X35278773Y20905196D01*
X35302572Y20899235D01*
X35325671Y20890970D01*
X35347850Y20880480D01*
X35368893Y20867868D01*
X35388599Y20853253D01*
X35406777Y20836777D01*
X35423253Y20818599D01*
X35437868Y20798893D01*
X35450480Y20777850D01*
X35460970Y20755671D01*
X35469235Y20732572D01*
X35475196Y20708773D01*
X35478796Y20684505D01*
X35480000Y20660001D01*
X35480000Y19759999D01*
X35478796Y19735495D01*
X35475196Y19711227D01*
X35469235Y19687428D01*
X35460970Y19664329D01*
X35450480Y19642150D01*
X35437868Y19621107D01*
X35423253Y19601401D01*
X35406777Y19583223D01*
X35388599Y19566747D01*
X35368893Y19552132D01*
X35347850Y19539520D01*
X35325671Y19529030D01*
X35302572Y19520765D01*
X35278773Y19514804D01*
X35254505Y19511204D01*
X35230001Y19510000D01*
X34579999Y19510000D01*
X34555495Y19511204D01*
X34531227Y19514804D01*
X34507428Y19520765D01*
X34484329Y19529030D01*
X34462150Y19539520D01*
X34441107Y19552132D01*
X34421401Y19566747D01*
X34403223Y19583223D01*
X34386747Y19601401D01*
X34372132Y19621107D01*
X34359520Y19642150D01*
X34349030Y19664329D01*
X34340765Y19687428D01*
X34334804Y19711227D01*
X34331204Y19735495D01*
X34330000Y19759999D01*
X34330000Y20660001D01*
X34331204Y20684505D01*
X34334804Y20708773D01*
X34340765Y20732572D01*
X34349030Y20755671D01*
X34359520Y20777850D01*
X34372132Y20798893D01*
X34386747Y20818599D01*
X34403223Y20836777D01*
X34421401Y20853253D01*
X34441107Y20867868D01*
X34462150Y20880480D01*
X34484329Y20890970D01*
X34507428Y20899235D01*
X34531227Y20905196D01*
X34555495Y20908796D01*
X34579999Y20910000D01*
X35230001Y20910000D01*
X35254505Y20908796D01*
X35254505Y20908796D01*
G37*
D18*
G04 #@! TD*
G04 #@! TO.P,C6,2*
G04 #@! TO.N,Net-(C6-Pad2)*
X34905000Y20210000D03*
D15*
G04 #@! TO.N,GND*
G04 #@! TO.C,D4*
G36*
X38704505Y23983796D02*
X38728773Y23980196D01*
X38752572Y23974235D01*
X38775671Y23965970D01*
X38797850Y23955480D01*
X38818893Y23942868D01*
X38838599Y23928253D01*
X38856777Y23911777D01*
X38873253Y23893599D01*
X38887868Y23873893D01*
X38900480Y23852850D01*
X38910970Y23830671D01*
X38919235Y23807572D01*
X38925196Y23783773D01*
X38928796Y23759505D01*
X38930000Y23735001D01*
X38930000Y23084999D01*
X38928796Y23060495D01*
X38925196Y23036227D01*
X38919235Y23012428D01*
X38910970Y22989329D01*
X38900480Y22967150D01*
X38887868Y22946107D01*
X38873253Y22926401D01*
X38856777Y22908223D01*
X38838599Y22891747D01*
X38818893Y22877132D01*
X38797850Y22864520D01*
X38775671Y22854030D01*
X38752572Y22845765D01*
X38728773Y22839804D01*
X38704505Y22836204D01*
X38680001Y22835000D01*
X37779999Y22835000D01*
X37755495Y22836204D01*
X37731227Y22839804D01*
X37707428Y22845765D01*
X37684329Y22854030D01*
X37662150Y22864520D01*
X37641107Y22877132D01*
X37621401Y22891747D01*
X37603223Y22908223D01*
X37586747Y22926401D01*
X37572132Y22946107D01*
X37559520Y22967150D01*
X37549030Y22989329D01*
X37540765Y23012428D01*
X37534804Y23036227D01*
X37531204Y23060495D01*
X37530000Y23084999D01*
X37530000Y23735001D01*
X37531204Y23759505D01*
X37534804Y23783773D01*
X37540765Y23807572D01*
X37549030Y23830671D01*
X37559520Y23852850D01*
X37572132Y23873893D01*
X37586747Y23893599D01*
X37603223Y23911777D01*
X37621401Y23928253D01*
X37641107Y23942868D01*
X37662150Y23955480D01*
X37684329Y23965970D01*
X37707428Y23974235D01*
X37731227Y23980196D01*
X37755495Y23983796D01*
X37779999Y23985000D01*
X38680001Y23985000D01*
X38704505Y23983796D01*
X38704505Y23983796D01*
G37*
D18*
G04 #@! TD*
G04 #@! TO.P,D4,1*
G04 #@! TO.N,GND*
X38230000Y23410000D03*
D15*
G04 #@! TO.N,Net-(D4-Pad2)*
G04 #@! TO.C,D4*
G36*
X38704505Y21933796D02*
X38728773Y21930196D01*
X38752572Y21924235D01*
X38775671Y21915970D01*
X38797850Y21905480D01*
X38818893Y21892868D01*
X38838599Y21878253D01*
X38856777Y21861777D01*
X38873253Y21843599D01*
X38887868Y21823893D01*
X38900480Y21802850D01*
X38910970Y21780671D01*
X38919235Y21757572D01*
X38925196Y21733773D01*
X38928796Y21709505D01*
X38930000Y21685001D01*
X38930000Y21034999D01*
X38928796Y21010495D01*
X38925196Y20986227D01*
X38919235Y20962428D01*
X38910970Y20939329D01*
X38900480Y20917150D01*
X38887868Y20896107D01*
X38873253Y20876401D01*
X38856777Y20858223D01*
X38838599Y20841747D01*
X38818893Y20827132D01*
X38797850Y20814520D01*
X38775671Y20804030D01*
X38752572Y20795765D01*
X38728773Y20789804D01*
X38704505Y20786204D01*
X38680001Y20785000D01*
X37779999Y20785000D01*
X37755495Y20786204D01*
X37731227Y20789804D01*
X37707428Y20795765D01*
X37684329Y20804030D01*
X37662150Y20814520D01*
X37641107Y20827132D01*
X37621401Y20841747D01*
X37603223Y20858223D01*
X37586747Y20876401D01*
X37572132Y20896107D01*
X37559520Y20917150D01*
X37549030Y20939329D01*
X37540765Y20962428D01*
X37534804Y20986227D01*
X37531204Y21010495D01*
X37530000Y21034999D01*
X37530000Y21685001D01*
X37531204Y21709505D01*
X37534804Y21733773D01*
X37540765Y21757572D01*
X37549030Y21780671D01*
X37559520Y21802850D01*
X37572132Y21823893D01*
X37586747Y21843599D01*
X37603223Y21861777D01*
X37621401Y21878253D01*
X37641107Y21892868D01*
X37662150Y21905480D01*
X37684329Y21915970D01*
X37707428Y21924235D01*
X37731227Y21930196D01*
X37755495Y21933796D01*
X37779999Y21935000D01*
X38680001Y21935000D01*
X38704505Y21933796D01*
X38704505Y21933796D01*
G37*
D18*
G04 #@! TD*
G04 #@! TO.P,D4,2*
G04 #@! TO.N,Net-(D4-Pad2)*
X38230000Y21360000D03*
D19*
G04 #@! TO.P,D3,1*
G04 #@! TO.N,Net-(C6-Pad1)*
X29080000Y18010000D03*
G04 #@! TO.P,D3,2*
G04 #@! TO.N,GND*
X29080000Y12610000D03*
G04 #@! TD*
D20*
G04 #@! TO.P,D1,1*
G04 #@! TO.N,GND*
X11780000Y5965000D03*
G04 #@! TO.P,D1,2*
G04 #@! TO.N,Net-(D1-Pad2)*
X11780000Y11295000D03*
G04 #@! TO.P,D1,3*
G04 #@! TO.N,Net-(D1-Pad3)*
X11780000Y16625000D03*
G04 #@! TO.P,D1,4*
G04 #@! TO.N,Net-(C1-Pad1)*
X11780000Y21955000D03*
G04 #@! TD*
D21*
G04 #@! TO.P,U2,1*
G04 #@! TO.N,Net-(C6-Pad2)*
X35780000Y22255000D03*
G04 #@! TO.P,U2,2*
G04 #@! TO.N,Net-(U2-Pad2)*
X35780000Y23525000D03*
G04 #@! TO.P,U2,3*
G04 #@! TO.N,Net-(U2-Pad3)*
X35780000Y24795000D03*
G04 #@! TO.P,U2,4*
G04 #@! TO.N,Net-(R3-Pad2)*
X35780000Y26065000D03*
G04 #@! TO.P,U2,5*
G04 #@! TO.N,Net-(U2-Pad5)*
X30380000Y26065000D03*
G04 #@! TO.P,U2,6*
G04 #@! TO.N,GND*
X30380000Y24795000D03*
G04 #@! TO.P,U2,7*
G04 #@! TO.N,Net-(C4-Pad1)*
X30380000Y23525000D03*
G04 #@! TO.P,U2,8*
G04 #@! TO.N,Net-(C6-Pad1)*
X30380000Y22255000D03*
G04 #@! TD*
D22*
G04 #@! TO.P,U1,1*
G04 #@! TO.N,Net-(C1-Pad1)*
X23860000Y24700000D03*
G04 #@! TO.P,U1,2*
G04 #@! TO.N,Net-(C4-Pad1)*
X24500000Y24700000D03*
G04 #@! TO.P,U1,3*
G04 #@! TO.N,GND*
X25160000Y24700000D03*
G04 #@! TO.P,U1,4*
G04 #@! TO.N,VCC*
X25800000Y24700000D03*
G04 #@! TO.P,U1,5*
G04 #@! TO.N,Net-(J2-Pad1)*
X25800000Y28120000D03*
G04 #@! TO.P,U1,6*
G04 #@! TO.N,Net-(J2-Pad2)*
X25160000Y28120000D03*
G04 #@! TO.P,U1,7*
G04 #@! TO.N,GND*
X24500000Y28120000D03*
G04 #@! TO.P,U1,8*
X23860000Y28120000D03*
G04 #@! TD*
D15*
G04 #@! TO.N,GND*
G04 #@! TO.C,R3*
G36*
X40654505Y29008796D02*
X40678773Y29005196D01*
X40702572Y28999235D01*
X40725671Y28990970D01*
X40747850Y28980480D01*
X40768893Y28967868D01*
X40788599Y28953253D01*
X40806777Y28936777D01*
X40823253Y28918599D01*
X40837868Y28898893D01*
X40850480Y28877850D01*
X40860970Y28855671D01*
X40869235Y28832572D01*
X40875196Y28808773D01*
X40878796Y28784505D01*
X40880000Y28760001D01*
X40880000Y27859999D01*
X40878796Y27835495D01*
X40875196Y27811227D01*
X40869235Y27787428D01*
X40860970Y27764329D01*
X40850480Y27742150D01*
X40837868Y27721107D01*
X40823253Y27701401D01*
X40806777Y27683223D01*
X40788599Y27666747D01*
X40768893Y27652132D01*
X40747850Y27639520D01*
X40725671Y27629030D01*
X40702572Y27620765D01*
X40678773Y27614804D01*
X40654505Y27611204D01*
X40630001Y27610000D01*
X39979999Y27610000D01*
X39955495Y27611204D01*
X39931227Y27614804D01*
X39907428Y27620765D01*
X39884329Y27629030D01*
X39862150Y27639520D01*
X39841107Y27652132D01*
X39821401Y27666747D01*
X39803223Y27683223D01*
X39786747Y27701401D01*
X39772132Y27721107D01*
X39759520Y27742150D01*
X39749030Y27764329D01*
X39740765Y27787428D01*
X39734804Y27811227D01*
X39731204Y27835495D01*
X39730000Y27859999D01*
X39730000Y28760001D01*
X39731204Y28784505D01*
X39734804Y28808773D01*
X39740765Y28832572D01*
X39749030Y28855671D01*
X39759520Y28877850D01*
X39772132Y28898893D01*
X39786747Y28918599D01*
X39803223Y28936777D01*
X39821401Y28953253D01*
X39841107Y28967868D01*
X39862150Y28980480D01*
X39884329Y28990970D01*
X39907428Y28999235D01*
X39931227Y29005196D01*
X39955495Y29008796D01*
X39979999Y29010000D01*
X40630001Y29010000D01*
X40654505Y29008796D01*
X40654505Y29008796D01*
G37*
D18*
G04 #@! TD*
G04 #@! TO.P,R3,1*
G04 #@! TO.N,GND*
X40305000Y28310000D03*
D15*
G04 #@! TO.N,Net-(R3-Pad2)*
G04 #@! TO.C,R3*
G36*
X38604505Y29008796D02*
X38628773Y29005196D01*
X38652572Y28999235D01*
X38675671Y28990970D01*
X38697850Y28980480D01*
X38718893Y28967868D01*
X38738599Y28953253D01*
X38756777Y28936777D01*
X38773253Y28918599D01*
X38787868Y28898893D01*
X38800480Y28877850D01*
X38810970Y28855671D01*
X38819235Y28832572D01*
X38825196Y28808773D01*
X38828796Y28784505D01*
X38830000Y28760001D01*
X38830000Y27859999D01*
X38828796Y27835495D01*
X38825196Y27811227D01*
X38819235Y27787428D01*
X38810970Y27764329D01*
X38800480Y27742150D01*
X38787868Y27721107D01*
X38773253Y27701401D01*
X38756777Y27683223D01*
X38738599Y27666747D01*
X38718893Y27652132D01*
X38697850Y27639520D01*
X38675671Y27629030D01*
X38652572Y27620765D01*
X38628773Y27614804D01*
X38604505Y27611204D01*
X38580001Y27610000D01*
X37929999Y27610000D01*
X37905495Y27611204D01*
X37881227Y27614804D01*
X37857428Y27620765D01*
X37834329Y27629030D01*
X37812150Y27639520D01*
X37791107Y27652132D01*
X37771401Y27666747D01*
X37753223Y27683223D01*
X37736747Y27701401D01*
X37722132Y27721107D01*
X37709520Y27742150D01*
X37699030Y27764329D01*
X37690765Y27787428D01*
X37684804Y27811227D01*
X37681204Y27835495D01*
X37680000Y27859999D01*
X37680000Y28760001D01*
X37681204Y28784505D01*
X37684804Y28808773D01*
X37690765Y28832572D01*
X37699030Y28855671D01*
X37709520Y28877850D01*
X37722132Y28898893D01*
X37736747Y28918599D01*
X37753223Y28936777D01*
X37771401Y28953253D01*
X37791107Y28967868D01*
X37812150Y28980480D01*
X37834329Y28990970D01*
X37857428Y28999235D01*
X37881227Y29005196D01*
X37905495Y29008796D01*
X37929999Y29010000D01*
X38580001Y29010000D01*
X38604505Y29008796D01*
X38604505Y29008796D01*
G37*
D18*
G04 #@! TD*
G04 #@! TO.P,R3,2*
G04 #@! TO.N,Net-(R3-Pad2)*
X38255000Y28310000D03*
D15*
G04 #@! TO.N,Net-(R3-Pad2)*
G04 #@! TO.C,R4*
G36*
X38654505Y26808796D02*
X38678773Y26805196D01*
X38702572Y26799235D01*
X38725671Y26790970D01*
X38747850Y26780480D01*
X38768893Y26767868D01*
X38788599Y26753253D01*
X38806777Y26736777D01*
X38823253Y26718599D01*
X38837868Y26698893D01*
X38850480Y26677850D01*
X38860970Y26655671D01*
X38869235Y26632572D01*
X38875196Y26608773D01*
X38878796Y26584505D01*
X38880000Y26560001D01*
X38880000Y25659999D01*
X38878796Y25635495D01*
X38875196Y25611227D01*
X38869235Y25587428D01*
X38860970Y25564329D01*
X38850480Y25542150D01*
X38837868Y25521107D01*
X38823253Y25501401D01*
X38806777Y25483223D01*
X38788599Y25466747D01*
X38768893Y25452132D01*
X38747850Y25439520D01*
X38725671Y25429030D01*
X38702572Y25420765D01*
X38678773Y25414804D01*
X38654505Y25411204D01*
X38630001Y25410000D01*
X37979999Y25410000D01*
X37955495Y25411204D01*
X37931227Y25414804D01*
X37907428Y25420765D01*
X37884329Y25429030D01*
X37862150Y25439520D01*
X37841107Y25452132D01*
X37821401Y25466747D01*
X37803223Y25483223D01*
X37786747Y25501401D01*
X37772132Y25521107D01*
X37759520Y25542150D01*
X37749030Y25564329D01*
X37740765Y25587428D01*
X37734804Y25611227D01*
X37731204Y25635495D01*
X37730000Y25659999D01*
X37730000Y26560001D01*
X37731204Y26584505D01*
X37734804Y26608773D01*
X37740765Y26632572D01*
X37749030Y26655671D01*
X37759520Y26677850D01*
X37772132Y26698893D01*
X37786747Y26718599D01*
X37803223Y26736777D01*
X37821401Y26753253D01*
X37841107Y26767868D01*
X37862150Y26780480D01*
X37884329Y26790970D01*
X37907428Y26799235D01*
X37931227Y26805196D01*
X37955495Y26808796D01*
X37979999Y26810000D01*
X38630001Y26810000D01*
X38654505Y26808796D01*
X38654505Y26808796D01*
G37*
D18*
G04 #@! TD*
G04 #@! TO.P,R4,2*
G04 #@! TO.N,Net-(R3-Pad2)*
X38305000Y26110000D03*
D15*
G04 #@! TO.N,VCC*
G04 #@! TO.C,R4*
G36*
X40704505Y26808796D02*
X40728773Y26805196D01*
X40752572Y26799235D01*
X40775671Y26790970D01*
X40797850Y26780480D01*
X40818893Y26767868D01*
X40838599Y26753253D01*
X40856777Y26736777D01*
X40873253Y26718599D01*
X40887868Y26698893D01*
X40900480Y26677850D01*
X40910970Y26655671D01*
X40919235Y26632572D01*
X40925196Y26608773D01*
X40928796Y26584505D01*
X40930000Y26560001D01*
X40930000Y25659999D01*
X40928796Y25635495D01*
X40925196Y25611227D01*
X40919235Y25587428D01*
X40910970Y25564329D01*
X40900480Y25542150D01*
X40887868Y25521107D01*
X40873253Y25501401D01*
X40856777Y25483223D01*
X40838599Y25466747D01*
X40818893Y25452132D01*
X40797850Y25439520D01*
X40775671Y25429030D01*
X40752572Y25420765D01*
X40728773Y25414804D01*
X40704505Y25411204D01*
X40680001Y25410000D01*
X40029999Y25410000D01*
X40005495Y25411204D01*
X39981227Y25414804D01*
X39957428Y25420765D01*
X39934329Y25429030D01*
X39912150Y25439520D01*
X39891107Y25452132D01*
X39871401Y25466747D01*
X39853223Y25483223D01*
X39836747Y25501401D01*
X39822132Y25521107D01*
X39809520Y25542150D01*
X39799030Y25564329D01*
X39790765Y25587428D01*
X39784804Y25611227D01*
X39781204Y25635495D01*
X39780000Y25659999D01*
X39780000Y26560001D01*
X39781204Y26584505D01*
X39784804Y26608773D01*
X39790765Y26632572D01*
X39799030Y26655671D01*
X39809520Y26677850D01*
X39822132Y26698893D01*
X39836747Y26718599D01*
X39853223Y26736777D01*
X39871401Y26753253D01*
X39891107Y26767868D01*
X39912150Y26780480D01*
X39934329Y26790970D01*
X39957428Y26799235D01*
X39981227Y26805196D01*
X40005495Y26808796D01*
X40029999Y26810000D01*
X40680001Y26810000D01*
X40704505Y26808796D01*
X40704505Y26808796D01*
G37*
D18*
G04 #@! TD*
G04 #@! TO.P,R4,1*
G04 #@! TO.N,VCC*
X40355000Y26110000D03*
D15*
G04 #@! TO.N,VCC*
G04 #@! TO.C,R5*
G36*
X40804505Y24033796D02*
X40828773Y24030196D01*
X40852572Y24024235D01*
X40875671Y24015970D01*
X40897850Y24005480D01*
X40918893Y23992868D01*
X40938599Y23978253D01*
X40956777Y23961777D01*
X40973253Y23943599D01*
X40987868Y23923893D01*
X41000480Y23902850D01*
X41010970Y23880671D01*
X41019235Y23857572D01*
X41025196Y23833773D01*
X41028796Y23809505D01*
X41030000Y23785001D01*
X41030000Y23134999D01*
X41028796Y23110495D01*
X41025196Y23086227D01*
X41019235Y23062428D01*
X41010970Y23039329D01*
X41000480Y23017150D01*
X40987868Y22996107D01*
X40973253Y22976401D01*
X40956777Y22958223D01*
X40938599Y22941747D01*
X40918893Y22927132D01*
X40897850Y22914520D01*
X40875671Y22904030D01*
X40852572Y22895765D01*
X40828773Y22889804D01*
X40804505Y22886204D01*
X40780001Y22885000D01*
X39879999Y22885000D01*
X39855495Y22886204D01*
X39831227Y22889804D01*
X39807428Y22895765D01*
X39784329Y22904030D01*
X39762150Y22914520D01*
X39741107Y22927132D01*
X39721401Y22941747D01*
X39703223Y22958223D01*
X39686747Y22976401D01*
X39672132Y22996107D01*
X39659520Y23017150D01*
X39649030Y23039329D01*
X39640765Y23062428D01*
X39634804Y23086227D01*
X39631204Y23110495D01*
X39630000Y23134999D01*
X39630000Y23785001D01*
X39631204Y23809505D01*
X39634804Y23833773D01*
X39640765Y23857572D01*
X39649030Y23880671D01*
X39659520Y23902850D01*
X39672132Y23923893D01*
X39686747Y23943599D01*
X39703223Y23961777D01*
X39721401Y23978253D01*
X39741107Y23992868D01*
X39762150Y24005480D01*
X39784329Y24015970D01*
X39807428Y24024235D01*
X39831227Y24030196D01*
X39855495Y24033796D01*
X39879999Y24035000D01*
X40780001Y24035000D01*
X40804505Y24033796D01*
X40804505Y24033796D01*
G37*
D18*
G04 #@! TD*
G04 #@! TO.P,R5,1*
G04 #@! TO.N,VCC*
X40330000Y23460000D03*
D15*
G04 #@! TO.N,Net-(D4-Pad2)*
G04 #@! TO.C,R5*
G36*
X40804505Y21983796D02*
X40828773Y21980196D01*
X40852572Y21974235D01*
X40875671Y21965970D01*
X40897850Y21955480D01*
X40918893Y21942868D01*
X40938599Y21928253D01*
X40956777Y21911777D01*
X40973253Y21893599D01*
X40987868Y21873893D01*
X41000480Y21852850D01*
X41010970Y21830671D01*
X41019235Y21807572D01*
X41025196Y21783773D01*
X41028796Y21759505D01*
X41030000Y21735001D01*
X41030000Y21084999D01*
X41028796Y21060495D01*
X41025196Y21036227D01*
X41019235Y21012428D01*
X41010970Y20989329D01*
X41000480Y20967150D01*
X40987868Y20946107D01*
X40973253Y20926401D01*
X40956777Y20908223D01*
X40938599Y20891747D01*
X40918893Y20877132D01*
X40897850Y20864520D01*
X40875671Y20854030D01*
X40852572Y20845765D01*
X40828773Y20839804D01*
X40804505Y20836204D01*
X40780001Y20835000D01*
X39879999Y20835000D01*
X39855495Y20836204D01*
X39831227Y20839804D01*
X39807428Y20845765D01*
X39784329Y20854030D01*
X39762150Y20864520D01*
X39741107Y20877132D01*
X39721401Y20891747D01*
X39703223Y20908223D01*
X39686747Y20926401D01*
X39672132Y20946107D01*
X39659520Y20967150D01*
X39649030Y20989329D01*
X39640765Y21012428D01*
X39634804Y21036227D01*
X39631204Y21060495D01*
X39630000Y21084999D01*
X39630000Y21735001D01*
X39631204Y21759505D01*
X39634804Y21783773D01*
X39640765Y21807572D01*
X39649030Y21830671D01*
X39659520Y21852850D01*
X39672132Y21873893D01*
X39686747Y21893599D01*
X39703223Y21911777D01*
X39721401Y21928253D01*
X39741107Y21942868D01*
X39762150Y21955480D01*
X39784329Y21965970D01*
X39807428Y21974235D01*
X39831227Y21980196D01*
X39855495Y21983796D01*
X39879999Y21985000D01*
X40780001Y21985000D01*
X40804505Y21983796D01*
X40804505Y21983796D01*
G37*
D18*
G04 #@! TD*
G04 #@! TO.P,R5,2*
G04 #@! TO.N,Net-(D4-Pad2)*
X40330000Y21410000D03*
D15*
G04 #@! TO.N,Net-(C4-Pad1)*
G04 #@! TO.C,R1*
G36*
X18529505Y28958796D02*
X18553773Y28955196D01*
X18577572Y28949235D01*
X18600671Y28940970D01*
X18622850Y28930480D01*
X18643893Y28917868D01*
X18663599Y28903253D01*
X18681777Y28886777D01*
X18698253Y28868599D01*
X18712868Y28848893D01*
X18725480Y28827850D01*
X18735970Y28805671D01*
X18744235Y28782572D01*
X18750196Y28758773D01*
X18753796Y28734505D01*
X18755000Y28710001D01*
X18755000Y27684999D01*
X18753796Y27660495D01*
X18750196Y27636227D01*
X18744235Y27612428D01*
X18735970Y27589329D01*
X18725480Y27567150D01*
X18712868Y27546107D01*
X18698253Y27526401D01*
X18681777Y27508223D01*
X18663599Y27491747D01*
X18643893Y27477132D01*
X18622850Y27464520D01*
X18600671Y27454030D01*
X18577572Y27445765D01*
X18553773Y27439804D01*
X18529505Y27436204D01*
X18505001Y27435000D01*
X15654999Y27435000D01*
X15630495Y27436204D01*
X15606227Y27439804D01*
X15582428Y27445765D01*
X15559329Y27454030D01*
X15537150Y27464520D01*
X15516107Y27477132D01*
X15496401Y27491747D01*
X15478223Y27508223D01*
X15461747Y27526401D01*
X15447132Y27546107D01*
X15434520Y27567150D01*
X15424030Y27589329D01*
X15415765Y27612428D01*
X15409804Y27636227D01*
X15406204Y27660495D01*
X15405000Y27684999D01*
X15405000Y28710001D01*
X15406204Y28734505D01*
X15409804Y28758773D01*
X15415765Y28782572D01*
X15424030Y28805671D01*
X15434520Y28827850D01*
X15447132Y28848893D01*
X15461747Y28868599D01*
X15478223Y28886777D01*
X15496401Y28903253D01*
X15516107Y28917868D01*
X15537150Y28930480D01*
X15559329Y28940970D01*
X15582428Y28949235D01*
X15606227Y28955196D01*
X15630495Y28958796D01*
X15654999Y28960000D01*
X18505001Y28960000D01*
X18529505Y28958796D01*
X18529505Y28958796D01*
G37*
D23*
G04 #@! TD*
G04 #@! TO.P,R1,1*
G04 #@! TO.N,Net-(C4-Pad1)*
X17080000Y28197500D03*
D15*
G04 #@! TO.N,Net-(C1-Pad1)*
G04 #@! TO.C,R1*
G36*
X18529505Y22983796D02*
X18553773Y22980196D01*
X18577572Y22974235D01*
X18600671Y22965970D01*
X18622850Y22955480D01*
X18643893Y22942868D01*
X18663599Y22928253D01*
X18681777Y22911777D01*
X18698253Y22893599D01*
X18712868Y22873893D01*
X18725480Y22852850D01*
X18735970Y22830671D01*
X18744235Y22807572D01*
X18750196Y22783773D01*
X18753796Y22759505D01*
X18755000Y22735001D01*
X18755000Y21709999D01*
X18753796Y21685495D01*
X18750196Y21661227D01*
X18744235Y21637428D01*
X18735970Y21614329D01*
X18725480Y21592150D01*
X18712868Y21571107D01*
X18698253Y21551401D01*
X18681777Y21533223D01*
X18663599Y21516747D01*
X18643893Y21502132D01*
X18622850Y21489520D01*
X18600671Y21479030D01*
X18577572Y21470765D01*
X18553773Y21464804D01*
X18529505Y21461204D01*
X18505001Y21460000D01*
X15654999Y21460000D01*
X15630495Y21461204D01*
X15606227Y21464804D01*
X15582428Y21470765D01*
X15559329Y21479030D01*
X15537150Y21489520D01*
X15516107Y21502132D01*
X15496401Y21516747D01*
X15478223Y21533223D01*
X15461747Y21551401D01*
X15447132Y21571107D01*
X15434520Y21592150D01*
X15424030Y21614329D01*
X15415765Y21637428D01*
X15409804Y21661227D01*
X15406204Y21685495D01*
X15405000Y21709999D01*
X15405000Y22735001D01*
X15406204Y22759505D01*
X15409804Y22783773D01*
X15415765Y22807572D01*
X15424030Y22830671D01*
X15434520Y22852850D01*
X15447132Y22873893D01*
X15461747Y22893599D01*
X15478223Y22911777D01*
X15496401Y22928253D01*
X15516107Y22942868D01*
X15537150Y22955480D01*
X15559329Y22965970D01*
X15582428Y22974235D01*
X15606227Y22980196D01*
X15630495Y22983796D01*
X15654999Y22985000D01*
X18505001Y22985000D01*
X18529505Y22983796D01*
X18529505Y22983796D01*
G37*
D23*
G04 #@! TD*
G04 #@! TO.P,R1,2*
G04 #@! TO.N,Net-(C1-Pad1)*
X17080000Y22222500D03*
D12*
G04 #@! TO.P,J1,2*
G04 #@! TO.N,Net-(D1-Pad2)*
X4630000Y12060000D03*
D11*
G04 #@! TO.P,J1,1*
G04 #@! TO.N,Net-(D1-Pad3)*
X4630000Y15560000D03*
G04 #@! TD*
G04 #@! TO.P,J3,1*
G04 #@! TO.N,VCC*
X4730000Y3110000D03*
D12*
G04 #@! TO.P,J3,2*
G04 #@! TO.N,GND*
X4730000Y6610000D03*
G04 #@! TD*
D10*
G04 #@! TO.P,REF\002A\002A,1*
G04 #@! TO.N,N/C*
X3940000Y32540000D03*
G04 #@! TD*
D24*
G04 #@! TO.N,VCC*
X42730000Y19360000D03*
G04 #@! TO.N,Net-(C6-Pad1)*
X32830000Y17610000D03*
G04 #@! TO.N,Net-(C4-Pad1)*
X30230000Y28610000D03*
X14180000Y31210000D03*
G04 #@! TD*
D25*
G04 #@! TO.N,VCC*
X37030000Y15260000D02*
X37030000Y13560000D01*
X42730000Y19360000D02*
X37030000Y15260000D01*
X42730000Y23735000D02*
X40355000Y26110000D01*
X42730000Y19360000D02*
X42730000Y23735000D01*
X40330000Y26085000D02*
X40355000Y26110000D01*
X40330000Y23460000D02*
X40330000Y26085000D01*
D26*
X22090000Y32360000D02*
X22090000Y34720000D01*
X22090000Y34720000D02*
X22680000Y35310000D01*
X22680000Y35310000D02*
X29130000Y35310000D01*
X29130000Y35310000D02*
X29580000Y34860000D01*
X29580000Y34860000D02*
X29580000Y30760000D01*
X29580000Y30760000D02*
X27580000Y28760000D01*
X27580000Y28760000D02*
X27580000Y25160000D01*
X27120000Y24700000D02*
X25800000Y24700000D01*
X27580000Y25160000D02*
X27120000Y24700000D01*
X25800000Y22105000D02*
X25800000Y24700000D01*
X25405000Y21710000D02*
X25800000Y22105000D01*
G04 #@! TO.N,GND*
X33929990Y19490754D02*
X34860744Y18560000D01*
X33929990Y22420010D02*
X33929990Y19490754D01*
X30380000Y24795000D02*
X31555000Y24795000D01*
X31555000Y24795000D02*
X33929990Y22420010D01*
X37606628Y22786628D02*
X38230000Y23410000D01*
X37129990Y22309990D02*
X37606628Y22786628D01*
X37129990Y20740734D02*
X37129990Y22309990D01*
X34949256Y18560000D02*
X37129990Y20740734D01*
X34860744Y18560000D02*
X34949256Y18560000D01*
D25*
X40305000Y28310000D02*
X40305000Y29255000D01*
X40305000Y29255000D02*
X38690000Y30870000D01*
X36715000Y30870000D02*
X34655000Y28810000D01*
X38690000Y30870000D02*
X36715000Y30870000D01*
D27*
G04 #@! TO.N,Net-(D1-Pad2)*
X5395000Y11295000D02*
X4630000Y12060000D01*
X11780000Y11295000D02*
X5395000Y11295000D01*
G04 #@! TO.N,Net-(D1-Pad3)*
X5695000Y16625000D02*
X4630000Y15560000D01*
X11780000Y16625000D02*
X5695000Y16625000D01*
G04 #@! TO.N,Net-(C1-Pad1)*
X17837500Y21955000D02*
X18042500Y22160000D01*
X11780000Y21955000D02*
X17837500Y21955000D01*
X17530000Y21647500D02*
X18042500Y22160000D01*
X17530000Y18260000D02*
X17530000Y21647500D01*
X20730000Y15060000D02*
X17530000Y18260000D01*
X20730000Y14560000D02*
X20730000Y15060000D01*
D26*
X21420000Y24700000D02*
X20830000Y24110000D01*
X23860000Y24700000D02*
X21420000Y24700000D01*
X18942500Y22222500D02*
X17080000Y22222500D01*
X20830000Y24110000D02*
X18942500Y22222500D01*
X17080000Y19910000D02*
X18560000Y18430000D01*
X17080000Y22222500D02*
X17080000Y19910000D01*
D27*
X20730000Y16260000D02*
X18560000Y18430000D01*
X20730000Y14560000D02*
X20730000Y16260000D01*
D25*
G04 #@! TO.N,Net-(D4-Pad2)*
X38280000Y21410000D02*
X38230000Y21360000D01*
X40330000Y21410000D02*
X38280000Y21410000D01*
G04 #@! TO.N,Net-(R3-Pad2)*
X35825000Y26110000D02*
X35780000Y26065000D01*
X38305000Y26110000D02*
X35825000Y26110000D01*
X38255000Y26160000D02*
X38305000Y26110000D01*
X38255000Y28310000D02*
X38255000Y26160000D01*
D26*
G04 #@! TO.N,Net-(J2-Pad1)*
X25800000Y29740000D02*
X25800000Y29460000D01*
X27170000Y31110000D02*
X25800000Y29740000D01*
X27170000Y32360000D02*
X27170000Y31110000D01*
X25800000Y28120000D02*
X25800000Y29460000D01*
G04 #@! TO.N,Net-(J2-Pad2)*
X24630000Y30240000D02*
X25160000Y29710000D01*
X24630000Y32360000D02*
X24630000Y30240000D01*
X25160000Y28120000D02*
X25160000Y29710000D01*
D25*
G04 #@! TO.N,Net-(C6-Pad2)*
X34905000Y21380000D02*
X35780000Y22255000D01*
X34905000Y20210000D02*
X34905000Y21380000D01*
G04 #@! TO.N,Net-(C6-Pad1)*
X33555000Y18335000D02*
X32830000Y17610000D01*
X29480000Y17610000D02*
X29080000Y18010000D01*
X32830000Y17610000D02*
X29480000Y17610000D01*
X30380000Y22255000D02*
X30810000Y22255000D01*
X32830000Y20185000D02*
X32855000Y20210000D01*
X32830000Y17610000D02*
X32830000Y20185000D01*
X30380000Y19310000D02*
X29080000Y18010000D01*
X30380000Y22255000D02*
X30380000Y19310000D01*
D27*
G04 #@! TO.N,Net-(C4-Pad1)*
X8667500Y28197500D02*
X4830000Y24360000D01*
D26*
X24500000Y26100000D02*
X24500000Y24700000D01*
X24440000Y26160000D02*
X24500000Y26100000D01*
X20830000Y26160000D02*
X24440000Y26160000D01*
X19117500Y26160000D02*
X17080000Y28197500D01*
X20830000Y26160000D02*
X19117500Y26160000D01*
D25*
X32605000Y28810000D02*
X30430000Y28810000D01*
X30430000Y28810000D02*
X30230000Y28610000D01*
X14180000Y28247500D02*
X14130000Y28197500D01*
X14180000Y31210000D02*
X14180000Y28247500D01*
D27*
X17080000Y28197500D02*
X14130000Y28197500D01*
X14130000Y28197500D02*
X8667500Y28197500D01*
D25*
X29005000Y23525000D02*
X28630000Y23900000D01*
X30380000Y23525000D02*
X29005000Y23525000D01*
X28630000Y27010000D02*
X30230000Y28610000D01*
X28630000Y23900000D02*
X28630000Y27010000D01*
G04 #@! TD*
D28*
G04 #@! TO.N,GND*
G36*
X21488000Y35322001D02*
X21441416Y35252283D01*
X21303448Y35045800D01*
X21238643Y34720000D01*
X21255001Y34637762D01*
X21255001Y33588065D01*
X21019375Y33430625D01*
X20806157Y33111522D01*
X20745183Y33241358D01*
X20316924Y33631645D01*
X19906890Y33801476D01*
X19677000Y33680155D01*
X19677000Y32487000D01*
X19697000Y32487000D01*
X19697000Y32233000D01*
X19677000Y32233000D01*
X19677000Y31039845D01*
X19906890Y30918524D01*
X20316924Y31088355D01*
X20745183Y31478642D01*
X20806157Y31608478D01*
X21019375Y31289375D01*
X21510582Y30961161D01*
X21943744Y30875000D01*
X22236256Y30875000D01*
X22669418Y30961161D01*
X23160625Y31289375D01*
X23360000Y31587761D01*
X23559375Y31289375D01*
X23795001Y31131935D01*
X23795001Y30322238D01*
X23778643Y30240000D01*
X23843448Y29914200D01*
X23904896Y29822237D01*
X23998351Y29682372D01*
X23940301Y29658327D01*
X23761673Y29479698D01*
X23760000Y29475659D01*
X23760000Y29596250D01*
X23601250Y29755000D01*
X23533690Y29755000D01*
X23300301Y29658327D01*
X23121673Y29479698D01*
X23025000Y29246309D01*
X23025000Y28405750D01*
X23183750Y28247000D01*
X23760000Y28247000D01*
X23760000Y28310750D01*
X23823750Y28247000D01*
X24007000Y28247000D01*
X24007000Y27993000D01*
X23823750Y27993000D01*
X23803750Y27973000D01*
X23760000Y27973000D01*
X23760000Y27993000D01*
X23183750Y27993000D01*
X23025000Y27834250D01*
X23025000Y26995000D01*
X21997832Y26995000D01*
X21914586Y27119586D01*
X21623436Y27314127D01*
X21280001Y27382440D01*
X20379999Y27382440D01*
X20036564Y27314127D01*
X19745414Y27119586D01*
X19662168Y26995000D01*
X19463368Y26995000D01*
X19247079Y27211288D01*
X19334127Y27341564D01*
X19402440Y27684999D01*
X19402440Y28710001D01*
X19334127Y29053436D01*
X19139586Y29344586D01*
X18848436Y29539127D01*
X18505001Y29607440D01*
X17912797Y29607440D01*
X17717945Y29737636D01*
X17241031Y29832500D01*
X15468293Y29832500D01*
X15778026Y30142233D01*
X16065000Y30835050D01*
X16065000Y31584950D01*
X15891794Y32003108D01*
X18108514Y32003108D01*
X18354817Y31478642D01*
X18783076Y31088355D01*
X19193110Y30918524D01*
X19423000Y31039845D01*
X19423000Y32233000D01*
X18229181Y32233000D01*
X18108514Y32003108D01*
X15891794Y32003108D01*
X15778026Y32277767D01*
X15338901Y32716892D01*
X18108514Y32716892D01*
X18229181Y32487000D01*
X19423000Y32487000D01*
X19423000Y33680155D01*
X19193110Y33801476D01*
X18783076Y33631645D01*
X18354817Y33241358D01*
X18108514Y32716892D01*
X15338901Y32716892D01*
X15247767Y32808026D01*
X14554950Y33095000D01*
X13805050Y33095000D01*
X13112233Y32808026D01*
X12581974Y32277767D01*
X12295000Y31584950D01*
X12295000Y30835050D01*
X12581974Y30142233D01*
X12891707Y29832500D01*
X8828531Y29832500D01*
X8667500Y29864531D01*
X8029554Y29737636D01*
X7625246Y29467486D01*
X7625244Y29467484D01*
X7488731Y29376269D01*
X7397516Y29239755D01*
X4365202Y26207440D01*
X3630000Y26207440D01*
X3382235Y26158157D01*
X3172191Y26017809D01*
X3031843Y25807765D01*
X2982560Y25560000D01*
X2982560Y23160000D01*
X3031843Y22912235D01*
X3172191Y22702191D01*
X3382235Y22561843D01*
X3630000Y22512560D01*
X3999181Y22512560D01*
X3835565Y22444788D01*
X3712430Y22157175D01*
X4830000Y21039605D01*
X5947570Y22157175D01*
X5824435Y22444788D01*
X5646564Y22512560D01*
X6030000Y22512560D01*
X6277765Y22561843D01*
X6487809Y22702191D01*
X6628157Y22912235D01*
X6677440Y23160000D01*
X6677440Y23895202D01*
X9344740Y26562500D01*
X17241031Y26562500D01*
X17485504Y26611129D01*
X18468915Y25627717D01*
X18515499Y25557999D01*
X18791699Y25373448D01*
X19035263Y25325000D01*
X19035266Y25325000D01*
X19117499Y25308643D01*
X19199732Y25325000D01*
X19662168Y25325000D01*
X19745414Y25200414D01*
X19843313Y25135000D01*
X19745414Y25069586D01*
X19550873Y24778436D01*
X19482560Y24435001D01*
X19482560Y23943428D01*
X19015435Y23476303D01*
X18680445Y23700136D01*
X18042500Y23827031D01*
X17404555Y23700136D01*
X17303241Y23632440D01*
X15654999Y23632440D01*
X15441637Y23590000D01*
X13305767Y23590000D01*
X13046026Y23849741D01*
X12224569Y24190000D01*
X11335431Y24190000D01*
X10513974Y23849741D01*
X9885259Y23221026D01*
X9545000Y22399569D01*
X9545000Y21510431D01*
X9885259Y20688974D01*
X10513974Y20060259D01*
X11335431Y19720000D01*
X12224569Y19720000D01*
X13046026Y20060259D01*
X13305767Y20320000D01*
X15895001Y20320000D01*
X15895000Y18421030D01*
X15862969Y18260000D01*
X15895000Y18098970D01*
X15989864Y17622056D01*
X16351231Y17081231D01*
X16487750Y16990012D01*
X18832560Y14645201D01*
X18832560Y12610000D01*
X18900874Y12266565D01*
X19095414Y11975414D01*
X19386565Y11780874D01*
X19730000Y11712560D01*
X21730000Y11712560D01*
X22073435Y11780874D01*
X22364586Y11975414D01*
X22559126Y12266565D01*
X22570600Y12324250D01*
X27295000Y12324250D01*
X27295000Y10733691D01*
X27391673Y10500302D01*
X27570301Y10321673D01*
X27803690Y10225000D01*
X28794250Y10225000D01*
X28953000Y10383750D01*
X28953000Y12483000D01*
X29207000Y12483000D01*
X29207000Y10383750D01*
X29365750Y10225000D01*
X30356310Y10225000D01*
X30589699Y10321673D01*
X30768327Y10500302D01*
X30865000Y10733691D01*
X30865000Y12324250D01*
X30706250Y12483000D01*
X29207000Y12483000D01*
X28953000Y12483000D01*
X27453750Y12483000D01*
X27295000Y12324250D01*
X22570600Y12324250D01*
X22627440Y12610000D01*
X22627440Y14486309D01*
X27295000Y14486309D01*
X27295000Y12895750D01*
X27453750Y12737000D01*
X28953000Y12737000D01*
X28953000Y14836250D01*
X29207000Y14836250D01*
X29207000Y12737000D01*
X30706250Y12737000D01*
X30865000Y12895750D01*
X30865000Y14486309D01*
X30768327Y14719698D01*
X30589699Y14898327D01*
X30356310Y14995000D01*
X29365750Y14995000D01*
X29207000Y14836250D01*
X28953000Y14836250D01*
X28794250Y14995000D01*
X27803690Y14995000D01*
X27570301Y14898327D01*
X27391673Y14719698D01*
X27295000Y14486309D01*
X22627440Y14486309D01*
X22627440Y16510000D01*
X22559126Y16853435D01*
X22364586Y17144586D01*
X22073435Y17339126D01*
X21960313Y17361627D01*
X21908769Y17438769D01*
X21772253Y17529986D01*
X20559973Y18742266D01*
X24215293Y18742266D01*
X24236214Y18012557D01*
X24475212Y17435565D01*
X24762825Y17312430D01*
X25880395Y18430000D01*
X24762825Y19547570D01*
X24475212Y19424435D01*
X24215293Y18742266D01*
X20559973Y18742266D01*
X20407440Y18894798D01*
X20407440Y19630000D01*
X20358157Y19877765D01*
X20217809Y20087809D01*
X20007765Y20228157D01*
X19760000Y20277440D01*
X19165000Y20277440D01*
X19165000Y20970262D01*
X19312485Y21117747D01*
X19342933Y21163316D01*
X19517284Y21424250D01*
X22145000Y21424250D01*
X22145000Y20883690D01*
X22241673Y20650301D01*
X22420302Y20471673D01*
X22653691Y20375000D01*
X23069250Y20375000D01*
X23228000Y20533750D01*
X23228000Y21583000D01*
X22303750Y21583000D01*
X22145000Y21424250D01*
X19517284Y21424250D01*
X19582636Y21522055D01*
X19622293Y21721426D01*
X20437177Y22536310D01*
X22145000Y22536310D01*
X22145000Y21995750D01*
X22303750Y21837000D01*
X23228000Y21837000D01*
X23228000Y22886250D01*
X23069250Y23045000D01*
X22653691Y23045000D01*
X22420302Y22948327D01*
X22241673Y22769699D01*
X22145000Y22536310D01*
X20437177Y22536310D01*
X20788428Y22887560D01*
X21280001Y22887560D01*
X21623436Y22955873D01*
X21914586Y23150414D01*
X22109127Y23441564D01*
X22177440Y23784999D01*
X22177440Y23865000D01*
X23012560Y23865000D01*
X23012560Y23700000D01*
X23061843Y23452235D01*
X23202191Y23242191D01*
X23412235Y23101843D01*
X23660000Y23052560D01*
X24060000Y23052560D01*
X24180000Y23076429D01*
X24300000Y23052560D01*
X24700000Y23052560D01*
X24810608Y23074561D01*
X24833690Y23065000D01*
X24901250Y23065000D01*
X24935691Y23099441D01*
X24947765Y23101843D01*
X24965000Y23113359D01*
X24965000Y23034566D01*
X24736564Y22989127D01*
X24445414Y22794586D01*
X24444623Y22793403D01*
X24289698Y22948327D01*
X24056309Y23045000D01*
X23640750Y23045000D01*
X23482000Y22886250D01*
X23482000Y21837000D01*
X23502000Y21837000D01*
X23502000Y21583000D01*
X23482000Y21583000D01*
X23482000Y20533750D01*
X23640750Y20375000D01*
X24056309Y20375000D01*
X24289698Y20471673D01*
X24444623Y20626597D01*
X24445414Y20625414D01*
X24736564Y20430873D01*
X25079999Y20362560D01*
X25730001Y20362560D01*
X26073436Y20430873D01*
X26364586Y20625414D01*
X26559127Y20916564D01*
X26627440Y21259999D01*
X26627440Y21984756D01*
X26635000Y22022763D01*
X26635000Y22022766D01*
X26651357Y22104999D01*
X26635000Y22187232D01*
X26635000Y23637459D01*
X26647440Y23700000D01*
X26647440Y23865000D01*
X27037767Y23865000D01*
X27120000Y23848643D01*
X27202233Y23865000D01*
X27202237Y23865000D01*
X27445801Y23913448D01*
X27695000Y24079958D01*
X27695000Y23992086D01*
X27676683Y23900000D01*
X27712079Y23722055D01*
X27749250Y23535182D01*
X27955903Y23225903D01*
X28033972Y23173739D01*
X28278739Y22928972D01*
X28330903Y22850903D01*
X28567268Y22692969D01*
X28640181Y22644250D01*
X28962558Y22580125D01*
X28957560Y22555000D01*
X28957560Y21955000D01*
X29006843Y21707235D01*
X29147191Y21497191D01*
X29357235Y21356843D01*
X29445000Y21339386D01*
X29445001Y20407440D01*
X27930000Y20407440D01*
X27682235Y20358157D01*
X27472191Y20217809D01*
X27331843Y20007765D01*
X27297466Y19834938D01*
X27291398Y19841006D01*
X27177569Y19727177D01*
X27054435Y20014788D01*
X26372266Y20274707D01*
X25642557Y20253786D01*
X25065565Y20014788D01*
X24942430Y19727175D01*
X26060000Y18609605D01*
X26074143Y18623747D01*
X26253748Y18444142D01*
X26239605Y18430000D01*
X26253748Y18415857D01*
X26074143Y18236252D01*
X26060000Y18250395D01*
X24942430Y17132825D01*
X25065565Y16845212D01*
X25747734Y16585293D01*
X26477443Y16606214D01*
X27054435Y16845212D01*
X27177569Y17132823D01*
X27282560Y17027832D01*
X27282560Y16260000D01*
X27331843Y16012235D01*
X27472191Y15802191D01*
X27682235Y15661843D01*
X27930000Y15612560D01*
X30230000Y15612560D01*
X30477765Y15661843D01*
X30687809Y15802191D01*
X30828157Y16012235D01*
X30877440Y16260000D01*
X30877440Y16675000D01*
X31176980Y16675000D01*
X31231974Y16542233D01*
X31762233Y16011974D01*
X32455050Y15725000D01*
X33204950Y15725000D01*
X33897767Y16011974D01*
X34428026Y16542233D01*
X34715000Y17235050D01*
X34715000Y17984950D01*
X34451325Y18621519D01*
X34435750Y18699818D01*
X34288231Y18920596D01*
X34579999Y18862560D01*
X35230001Y18862560D01*
X35573436Y18930873D01*
X35864586Y19125414D01*
X36059127Y19416564D01*
X36127440Y19759999D01*
X36127440Y20660001D01*
X36059127Y21003436D01*
X35975653Y21128363D01*
X36154850Y21307560D01*
X36555000Y21307560D01*
X36802765Y21356843D01*
X36882560Y21410161D01*
X36882560Y21034999D01*
X36950873Y20691564D01*
X37145414Y20400414D01*
X37436564Y20205873D01*
X37779999Y20137560D01*
X38680001Y20137560D01*
X39023436Y20205873D01*
X39314586Y20400414D01*
X39316332Y20403028D01*
X39536564Y20255873D01*
X39879999Y20187560D01*
X40780001Y20187560D01*
X41055147Y20242290D01*
X40845000Y19734950D01*
X40845000Y19155878D01*
X36497131Y16028463D01*
X36355903Y15934097D01*
X36354869Y15932550D01*
X36136565Y15889126D01*
X35845414Y15694586D01*
X35650874Y15403435D01*
X35582560Y15060000D01*
X35582560Y12060000D01*
X35650874Y11716565D01*
X35845414Y11425414D01*
X36136565Y11230874D01*
X36480000Y11162560D01*
X37580000Y11162560D01*
X37923435Y11230874D01*
X38214586Y11425414D01*
X38409126Y11716565D01*
X38477440Y12060000D01*
X38477440Y15060000D01*
X38461885Y15138198D01*
X41946105Y17644391D01*
X42355050Y17475000D01*
X43104950Y17475000D01*
X43797767Y17761974D01*
X44328026Y18292233D01*
X44615000Y18985050D01*
X44615000Y19734950D01*
X44328026Y20427767D01*
X43797767Y20958026D01*
X43665000Y21013020D01*
X43665000Y23642919D01*
X43683316Y23735001D01*
X43665000Y23827083D01*
X43665000Y23827086D01*
X43610750Y24099819D01*
X43404097Y24409097D01*
X43326031Y24461259D01*
X41577440Y26209849D01*
X41577440Y26560001D01*
X41509127Y26903436D01*
X41333822Y27165797D01*
X41418327Y27250301D01*
X41515000Y27483690D01*
X41515000Y28024250D01*
X41356250Y28183000D01*
X40432000Y28183000D01*
X40432000Y28163000D01*
X40178000Y28163000D01*
X40178000Y28183000D01*
X40158000Y28183000D01*
X40158000Y28437000D01*
X40178000Y28437000D01*
X40178000Y28457000D01*
X40432000Y28457000D01*
X40432000Y28437000D01*
X41356250Y28437000D01*
X41515000Y28595750D01*
X41515000Y28905000D01*
X42893046Y28905000D01*
X44229062Y29458396D01*
X44995000Y30224334D01*
X44995001Y909294D01*
X44991916Y886398D01*
X44995001Y837038D01*
X44995001Y795000D01*
X715000Y795000D01*
X715000Y4310000D01*
X2882560Y4310000D01*
X2882560Y1910000D01*
X2931843Y1662235D01*
X3072191Y1452191D01*
X3282235Y1311843D01*
X3530000Y1262560D01*
X5930000Y1262560D01*
X6177765Y1311843D01*
X6387809Y1452191D01*
X6528157Y1662235D01*
X6577440Y1910000D01*
X6577440Y4310000D01*
X6563756Y4378798D01*
X10373403Y4378798D01*
X10545390Y4049640D01*
X11372346Y3722974D01*
X12261363Y3737635D01*
X13014610Y4049640D01*
X13186597Y4378798D01*
X11780000Y5785395D01*
X10373403Y4378798D01*
X6563756Y4378798D01*
X6528157Y4557765D01*
X6387809Y4767809D01*
X6177765Y4908157D01*
X5930000Y4957440D01*
X5560819Y4957440D01*
X5724435Y5025212D01*
X5847570Y5312825D01*
X4730000Y6430395D01*
X3612430Y5312825D01*
X3735565Y5025212D01*
X3913436Y4957440D01*
X3530000Y4957440D01*
X3282235Y4908157D01*
X3072191Y4767809D01*
X2931843Y4557765D01*
X2882560Y4310000D01*
X715000Y4310000D01*
X715000Y6922266D01*
X2885293Y6922266D01*
X2906214Y6192557D01*
X3145212Y5615565D01*
X3432825Y5492430D01*
X4550395Y6610000D01*
X4909605Y6610000D01*
X6027175Y5492430D01*
X6314788Y5615565D01*
X6574707Y6297734D01*
X6572560Y6372654D01*
X9537974Y6372654D01*
X9552635Y5483637D01*
X9864640Y4730390D01*
X10193798Y4558403D01*
X11600395Y5965000D01*
X11959605Y5965000D01*
X13366202Y4558403D01*
X13695360Y4730390D01*
X14022026Y5557346D01*
X14016800Y5874250D01*
X18845000Y5874250D01*
X18845000Y3833691D01*
X18941673Y3600302D01*
X19120301Y3421673D01*
X19353690Y3325000D01*
X20444250Y3325000D01*
X20603000Y3483750D01*
X20603000Y6033000D01*
X20857000Y6033000D01*
X20857000Y3483750D01*
X21015750Y3325000D01*
X22106310Y3325000D01*
X22339699Y3421673D01*
X22518327Y3600302D01*
X22615000Y3833691D01*
X22615000Y5874250D01*
X22456250Y6033000D01*
X20857000Y6033000D01*
X20603000Y6033000D01*
X19003750Y6033000D01*
X18845000Y5874250D01*
X14016800Y5874250D01*
X14007365Y6446363D01*
X13695360Y7199610D01*
X13366202Y7371597D01*
X11959605Y5965000D01*
X11600395Y5965000D01*
X10193798Y7371597D01*
X9864640Y7199610D01*
X9537974Y6372654D01*
X6572560Y6372654D01*
X6553786Y7027443D01*
X6336838Y7551202D01*
X10373403Y7551202D01*
X11780000Y6144605D01*
X13186597Y7551202D01*
X13014610Y7880360D01*
X12187654Y8207026D01*
X11298637Y8192365D01*
X10545390Y7880360D01*
X10373403Y7551202D01*
X6336838Y7551202D01*
X6314788Y7604435D01*
X6027175Y7727570D01*
X4909605Y6610000D01*
X4550395Y6610000D01*
X3432825Y7727570D01*
X3145212Y7604435D01*
X2885293Y6922266D01*
X715000Y6922266D01*
X715000Y7907175D01*
X3612430Y7907175D01*
X4730000Y6789605D01*
X5847570Y7907175D01*
X5724435Y8194788D01*
X5042266Y8454707D01*
X4312557Y8433786D01*
X3735565Y8194788D01*
X3612430Y7907175D01*
X715000Y7907175D01*
X715000Y8486309D01*
X18845000Y8486309D01*
X18845000Y6445750D01*
X19003750Y6287000D01*
X20603000Y6287000D01*
X20603000Y8836250D01*
X20857000Y8836250D01*
X20857000Y6287000D01*
X22456250Y6287000D01*
X22615000Y6445750D01*
X22615000Y7674250D01*
X35595000Y7674250D01*
X35595000Y6083691D01*
X35691673Y5850302D01*
X35870301Y5671673D01*
X36103690Y5575000D01*
X36744250Y5575000D01*
X36903000Y5733750D01*
X36903000Y7833000D01*
X37157000Y7833000D01*
X37157000Y5733750D01*
X37315750Y5575000D01*
X37956310Y5575000D01*
X38189699Y5671673D01*
X38368327Y5850302D01*
X38465000Y6083691D01*
X38465000Y7674250D01*
X38306250Y7833000D01*
X37157000Y7833000D01*
X36903000Y7833000D01*
X35753750Y7833000D01*
X35595000Y7674250D01*
X22615000Y7674250D01*
X22615000Y8486309D01*
X22518327Y8719698D01*
X22339699Y8898327D01*
X22106310Y8995000D01*
X21015750Y8995000D01*
X20857000Y8836250D01*
X20603000Y8836250D01*
X20444250Y8995000D01*
X19353690Y8995000D01*
X19120301Y8898327D01*
X18941673Y8719698D01*
X18845000Y8486309D01*
X715000Y8486309D01*
X715000Y16760000D01*
X2782560Y16760000D01*
X2782560Y14360000D01*
X2831843Y14112235D01*
X2972191Y13902191D01*
X3182235Y13761843D01*
X3430000Y13712560D01*
X3824547Y13712560D01*
X3590556Y13615638D01*
X3074362Y13099444D01*
X2795000Y12425004D01*
X2795000Y11694996D01*
X3074362Y11020556D01*
X3590556Y10504362D01*
X4073401Y10304361D01*
X4125012Y10252750D01*
X4216231Y10116231D01*
X4757055Y9754864D01*
X5233969Y9660000D01*
X5233973Y9660000D01*
X5394999Y9627970D01*
X5556025Y9660000D01*
X10254233Y9660000D01*
X10513974Y9400259D01*
X11335431Y9060000D01*
X12224569Y9060000D01*
X13046026Y9400259D01*
X13482076Y9836309D01*
X35595000Y9836309D01*
X35595000Y8245750D01*
X35753750Y8087000D01*
X36903000Y8087000D01*
X36903000Y10186250D01*
X37157000Y10186250D01*
X37157000Y8087000D01*
X38306250Y8087000D01*
X38465000Y8245750D01*
X38465000Y9836309D01*
X38368327Y10069698D01*
X38189699Y10248327D01*
X37956310Y10345000D01*
X37315750Y10345000D01*
X37157000Y10186250D01*
X36903000Y10186250D01*
X36744250Y10345000D01*
X36103690Y10345000D01*
X35870301Y10248327D01*
X35691673Y10069698D01*
X35595000Y9836309D01*
X13482076Y9836309D01*
X13674741Y10028974D01*
X14015000Y10850431D01*
X14015000Y11739569D01*
X13674741Y12561026D01*
X13046026Y13189741D01*
X12224569Y13530000D01*
X11335431Y13530000D01*
X10513974Y13189741D01*
X10254233Y12930000D01*
X6255824Y12930000D01*
X6185638Y13099444D01*
X5669444Y13615638D01*
X5435453Y13712560D01*
X5830000Y13712560D01*
X6077765Y13761843D01*
X6287809Y13902191D01*
X6428157Y14112235D01*
X6477440Y14360000D01*
X6477440Y14990000D01*
X10254233Y14990000D01*
X10513974Y14730259D01*
X11335431Y14390000D01*
X12224569Y14390000D01*
X13046026Y14730259D01*
X13674741Y15358974D01*
X14015000Y16180431D01*
X14015000Y17069569D01*
X13674741Y17891026D01*
X13046026Y18519741D01*
X12224569Y18860000D01*
X11335431Y18860000D01*
X10513974Y18519741D01*
X10254233Y18260000D01*
X5856025Y18260000D01*
X5694999Y18292030D01*
X5533973Y18260000D01*
X5533969Y18260000D01*
X5057055Y18165136D01*
X4516231Y17803769D01*
X4425013Y17667252D01*
X4165201Y17407440D01*
X3430000Y17407440D01*
X3182235Y17358157D01*
X2972191Y17217809D01*
X2831843Y17007765D01*
X2782560Y16760000D01*
X715000Y16760000D01*
X715000Y19562825D01*
X3712430Y19562825D01*
X3835565Y19275212D01*
X4517734Y19015293D01*
X5247443Y19036214D01*
X5824435Y19275212D01*
X5947570Y19562825D01*
X4830000Y20680395D01*
X3712430Y19562825D01*
X715000Y19562825D01*
X715000Y21172266D01*
X2985293Y21172266D01*
X3006214Y20442557D01*
X3245212Y19865565D01*
X3532825Y19742430D01*
X4650395Y20860000D01*
X5009605Y20860000D01*
X6127175Y19742430D01*
X6414788Y19865565D01*
X6674707Y20547734D01*
X6653786Y21277443D01*
X6414788Y21854435D01*
X6127175Y21977570D01*
X5009605Y20860000D01*
X4650395Y20860000D01*
X3532825Y21977570D01*
X3245212Y21854435D01*
X2985293Y21172266D01*
X715000Y21172266D01*
X715000Y30827127D01*
X858396Y30480938D01*
X1880938Y29458396D01*
X3216954Y28905000D01*
X4663046Y28905000D01*
X5999062Y29458396D01*
X7021604Y30480938D01*
X7575000Y31816954D01*
X7575000Y33263046D01*
X7021604Y34599062D01*
X6331784Y35288882D01*
X21488014Y35322011D01*
X21488000Y35322001D01*
X21488000Y35322001D01*
G37*
X21488000Y35322001D02*
X21441416Y35252283D01*
X21303448Y35045800D01*
X21238643Y34720000D01*
X21255001Y34637762D01*
X21255001Y33588065D01*
X21019375Y33430625D01*
X20806157Y33111522D01*
X20745183Y33241358D01*
X20316924Y33631645D01*
X19906890Y33801476D01*
X19677000Y33680155D01*
X19677000Y32487000D01*
X19697000Y32487000D01*
X19697000Y32233000D01*
X19677000Y32233000D01*
X19677000Y31039845D01*
X19906890Y30918524D01*
X20316924Y31088355D01*
X20745183Y31478642D01*
X20806157Y31608478D01*
X21019375Y31289375D01*
X21510582Y30961161D01*
X21943744Y30875000D01*
X22236256Y30875000D01*
X22669418Y30961161D01*
X23160625Y31289375D01*
X23360000Y31587761D01*
X23559375Y31289375D01*
X23795001Y31131935D01*
X23795001Y30322238D01*
X23778643Y30240000D01*
X23843448Y29914200D01*
X23904896Y29822237D01*
X23998351Y29682372D01*
X23940301Y29658327D01*
X23761673Y29479698D01*
X23760000Y29475659D01*
X23760000Y29596250D01*
X23601250Y29755000D01*
X23533690Y29755000D01*
X23300301Y29658327D01*
X23121673Y29479698D01*
X23025000Y29246309D01*
X23025000Y28405750D01*
X23183750Y28247000D01*
X23760000Y28247000D01*
X23760000Y28310750D01*
X23823750Y28247000D01*
X24007000Y28247000D01*
X24007000Y27993000D01*
X23823750Y27993000D01*
X23803750Y27973000D01*
X23760000Y27973000D01*
X23760000Y27993000D01*
X23183750Y27993000D01*
X23025000Y27834250D01*
X23025000Y26995000D01*
X21997832Y26995000D01*
X21914586Y27119586D01*
X21623436Y27314127D01*
X21280001Y27382440D01*
X20379999Y27382440D01*
X20036564Y27314127D01*
X19745414Y27119586D01*
X19662168Y26995000D01*
X19463368Y26995000D01*
X19247079Y27211288D01*
X19334127Y27341564D01*
X19402440Y27684999D01*
X19402440Y28710001D01*
X19334127Y29053436D01*
X19139586Y29344586D01*
X18848436Y29539127D01*
X18505001Y29607440D01*
X17912797Y29607440D01*
X17717945Y29737636D01*
X17241031Y29832500D01*
X15468293Y29832500D01*
X15778026Y30142233D01*
X16065000Y30835050D01*
X16065000Y31584950D01*
X15891794Y32003108D01*
X18108514Y32003108D01*
X18354817Y31478642D01*
X18783076Y31088355D01*
X19193110Y30918524D01*
X19423000Y31039845D01*
X19423000Y32233000D01*
X18229181Y32233000D01*
X18108514Y32003108D01*
X15891794Y32003108D01*
X15778026Y32277767D01*
X15338901Y32716892D01*
X18108514Y32716892D01*
X18229181Y32487000D01*
X19423000Y32487000D01*
X19423000Y33680155D01*
X19193110Y33801476D01*
X18783076Y33631645D01*
X18354817Y33241358D01*
X18108514Y32716892D01*
X15338901Y32716892D01*
X15247767Y32808026D01*
X14554950Y33095000D01*
X13805050Y33095000D01*
X13112233Y32808026D01*
X12581974Y32277767D01*
X12295000Y31584950D01*
X12295000Y30835050D01*
X12581974Y30142233D01*
X12891707Y29832500D01*
X8828531Y29832500D01*
X8667500Y29864531D01*
X8029554Y29737636D01*
X7625246Y29467486D01*
X7625244Y29467484D01*
X7488731Y29376269D01*
X7397516Y29239755D01*
X4365202Y26207440D01*
X3630000Y26207440D01*
X3382235Y26158157D01*
X3172191Y26017809D01*
X3031843Y25807765D01*
X2982560Y25560000D01*
X2982560Y23160000D01*
X3031843Y22912235D01*
X3172191Y22702191D01*
X3382235Y22561843D01*
X3630000Y22512560D01*
X3999181Y22512560D01*
X3835565Y22444788D01*
X3712430Y22157175D01*
X4830000Y21039605D01*
X5947570Y22157175D01*
X5824435Y22444788D01*
X5646564Y22512560D01*
X6030000Y22512560D01*
X6277765Y22561843D01*
X6487809Y22702191D01*
X6628157Y22912235D01*
X6677440Y23160000D01*
X6677440Y23895202D01*
X9344740Y26562500D01*
X17241031Y26562500D01*
X17485504Y26611129D01*
X18468915Y25627717D01*
X18515499Y25557999D01*
X18791699Y25373448D01*
X19035263Y25325000D01*
X19035266Y25325000D01*
X19117499Y25308643D01*
X19199732Y25325000D01*
X19662168Y25325000D01*
X19745414Y25200414D01*
X19843313Y25135000D01*
X19745414Y25069586D01*
X19550873Y24778436D01*
X19482560Y24435001D01*
X19482560Y23943428D01*
X19015435Y23476303D01*
X18680445Y23700136D01*
X18042500Y23827031D01*
X17404555Y23700136D01*
X17303241Y23632440D01*
X15654999Y23632440D01*
X15441637Y23590000D01*
X13305767Y23590000D01*
X13046026Y23849741D01*
X12224569Y24190000D01*
X11335431Y24190000D01*
X10513974Y23849741D01*
X9885259Y23221026D01*
X9545000Y22399569D01*
X9545000Y21510431D01*
X9885259Y20688974D01*
X10513974Y20060259D01*
X11335431Y19720000D01*
X12224569Y19720000D01*
X13046026Y20060259D01*
X13305767Y20320000D01*
X15895001Y20320000D01*
X15895000Y18421030D01*
X15862969Y18260000D01*
X15895000Y18098970D01*
X15989864Y17622056D01*
X16351231Y17081231D01*
X16487750Y16990012D01*
X18832560Y14645201D01*
X18832560Y12610000D01*
X18900874Y12266565D01*
X19095414Y11975414D01*
X19386565Y11780874D01*
X19730000Y11712560D01*
X21730000Y11712560D01*
X22073435Y11780874D01*
X22364586Y11975414D01*
X22559126Y12266565D01*
X22570600Y12324250D01*
X27295000Y12324250D01*
X27295000Y10733691D01*
X27391673Y10500302D01*
X27570301Y10321673D01*
X27803690Y10225000D01*
X28794250Y10225000D01*
X28953000Y10383750D01*
X28953000Y12483000D01*
X29207000Y12483000D01*
X29207000Y10383750D01*
X29365750Y10225000D01*
X30356310Y10225000D01*
X30589699Y10321673D01*
X30768327Y10500302D01*
X30865000Y10733691D01*
X30865000Y12324250D01*
X30706250Y12483000D01*
X29207000Y12483000D01*
X28953000Y12483000D01*
X27453750Y12483000D01*
X27295000Y12324250D01*
X22570600Y12324250D01*
X22627440Y12610000D01*
X22627440Y14486309D01*
X27295000Y14486309D01*
X27295000Y12895750D01*
X27453750Y12737000D01*
X28953000Y12737000D01*
X28953000Y14836250D01*
X29207000Y14836250D01*
X29207000Y12737000D01*
X30706250Y12737000D01*
X30865000Y12895750D01*
X30865000Y14486309D01*
X30768327Y14719698D01*
X30589699Y14898327D01*
X30356310Y14995000D01*
X29365750Y14995000D01*
X29207000Y14836250D01*
X28953000Y14836250D01*
X28794250Y14995000D01*
X27803690Y14995000D01*
X27570301Y14898327D01*
X27391673Y14719698D01*
X27295000Y14486309D01*
X22627440Y14486309D01*
X22627440Y16510000D01*
X22559126Y16853435D01*
X22364586Y17144586D01*
X22073435Y17339126D01*
X21960313Y17361627D01*
X21908769Y17438769D01*
X21772253Y17529986D01*
X20559973Y18742266D01*
X24215293Y18742266D01*
X24236214Y18012557D01*
X24475212Y17435565D01*
X24762825Y17312430D01*
X25880395Y18430000D01*
X24762825Y19547570D01*
X24475212Y19424435D01*
X24215293Y18742266D01*
X20559973Y18742266D01*
X20407440Y18894798D01*
X20407440Y19630000D01*
X20358157Y19877765D01*
X20217809Y20087809D01*
X20007765Y20228157D01*
X19760000Y20277440D01*
X19165000Y20277440D01*
X19165000Y20970262D01*
X19312485Y21117747D01*
X19342933Y21163316D01*
X19517284Y21424250D01*
X22145000Y21424250D01*
X22145000Y20883690D01*
X22241673Y20650301D01*
X22420302Y20471673D01*
X22653691Y20375000D01*
X23069250Y20375000D01*
X23228000Y20533750D01*
X23228000Y21583000D01*
X22303750Y21583000D01*
X22145000Y21424250D01*
X19517284Y21424250D01*
X19582636Y21522055D01*
X19622293Y21721426D01*
X20437177Y22536310D01*
X22145000Y22536310D01*
X22145000Y21995750D01*
X22303750Y21837000D01*
X23228000Y21837000D01*
X23228000Y22886250D01*
X23069250Y23045000D01*
X22653691Y23045000D01*
X22420302Y22948327D01*
X22241673Y22769699D01*
X22145000Y22536310D01*
X20437177Y22536310D01*
X20788428Y22887560D01*
X21280001Y22887560D01*
X21623436Y22955873D01*
X21914586Y23150414D01*
X22109127Y23441564D01*
X22177440Y23784999D01*
X22177440Y23865000D01*
X23012560Y23865000D01*
X23012560Y23700000D01*
X23061843Y23452235D01*
X23202191Y23242191D01*
X23412235Y23101843D01*
X23660000Y23052560D01*
X24060000Y23052560D01*
X24180000Y23076429D01*
X24300000Y23052560D01*
X24700000Y23052560D01*
X24810608Y23074561D01*
X24833690Y23065000D01*
X24901250Y23065000D01*
X24935691Y23099441D01*
X24947765Y23101843D01*
X24965000Y23113359D01*
X24965000Y23034566D01*
X24736564Y22989127D01*
X24445414Y22794586D01*
X24444623Y22793403D01*
X24289698Y22948327D01*
X24056309Y23045000D01*
X23640750Y23045000D01*
X23482000Y22886250D01*
X23482000Y21837000D01*
X23502000Y21837000D01*
X23502000Y21583000D01*
X23482000Y21583000D01*
X23482000Y20533750D01*
X23640750Y20375000D01*
X24056309Y20375000D01*
X24289698Y20471673D01*
X24444623Y20626597D01*
X24445414Y20625414D01*
X24736564Y20430873D01*
X25079999Y20362560D01*
X25730001Y20362560D01*
X26073436Y20430873D01*
X26364586Y20625414D01*
X26559127Y20916564D01*
X26627440Y21259999D01*
X26627440Y21984756D01*
X26635000Y22022763D01*
X26635000Y22022766D01*
X26651357Y22104999D01*
X26635000Y22187232D01*
X26635000Y23637459D01*
X26647440Y23700000D01*
X26647440Y23865000D01*
X27037767Y23865000D01*
X27120000Y23848643D01*
X27202233Y23865000D01*
X27202237Y23865000D01*
X27445801Y23913448D01*
X27695000Y24079958D01*
X27695000Y23992086D01*
X27676683Y23900000D01*
X27712079Y23722055D01*
X27749250Y23535182D01*
X27955903Y23225903D01*
X28033972Y23173739D01*
X28278739Y22928972D01*
X28330903Y22850903D01*
X28567268Y22692969D01*
X28640181Y22644250D01*
X28962558Y22580125D01*
X28957560Y22555000D01*
X28957560Y21955000D01*
X29006843Y21707235D01*
X29147191Y21497191D01*
X29357235Y21356843D01*
X29445000Y21339386D01*
X29445001Y20407440D01*
X27930000Y20407440D01*
X27682235Y20358157D01*
X27472191Y20217809D01*
X27331843Y20007765D01*
X27297466Y19834938D01*
X27291398Y19841006D01*
X27177569Y19727177D01*
X27054435Y20014788D01*
X26372266Y20274707D01*
X25642557Y20253786D01*
X25065565Y20014788D01*
X24942430Y19727175D01*
X26060000Y18609605D01*
X26074143Y18623747D01*
X26253748Y18444142D01*
X26239605Y18430000D01*
X26253748Y18415857D01*
X26074143Y18236252D01*
X26060000Y18250395D01*
X24942430Y17132825D01*
X25065565Y16845212D01*
X25747734Y16585293D01*
X26477443Y16606214D01*
X27054435Y16845212D01*
X27177569Y17132823D01*
X27282560Y17027832D01*
X27282560Y16260000D01*
X27331843Y16012235D01*
X27472191Y15802191D01*
X27682235Y15661843D01*
X27930000Y15612560D01*
X30230000Y15612560D01*
X30477765Y15661843D01*
X30687809Y15802191D01*
X30828157Y16012235D01*
X30877440Y16260000D01*
X30877440Y16675000D01*
X31176980Y16675000D01*
X31231974Y16542233D01*
X31762233Y16011974D01*
X32455050Y15725000D01*
X33204950Y15725000D01*
X33897767Y16011974D01*
X34428026Y16542233D01*
X34715000Y17235050D01*
X34715000Y17984950D01*
X34451325Y18621519D01*
X34435750Y18699818D01*
X34288231Y18920596D01*
X34579999Y18862560D01*
X35230001Y18862560D01*
X35573436Y18930873D01*
X35864586Y19125414D01*
X36059127Y19416564D01*
X36127440Y19759999D01*
X36127440Y20660001D01*
X36059127Y21003436D01*
X35975653Y21128363D01*
X36154850Y21307560D01*
X36555000Y21307560D01*
X36802765Y21356843D01*
X36882560Y21410161D01*
X36882560Y21034999D01*
X36950873Y20691564D01*
X37145414Y20400414D01*
X37436564Y20205873D01*
X37779999Y20137560D01*
X38680001Y20137560D01*
X39023436Y20205873D01*
X39314586Y20400414D01*
X39316332Y20403028D01*
X39536564Y20255873D01*
X39879999Y20187560D01*
X40780001Y20187560D01*
X41055147Y20242290D01*
X40845000Y19734950D01*
X40845000Y19155878D01*
X36497131Y16028463D01*
X36355903Y15934097D01*
X36354869Y15932550D01*
X36136565Y15889126D01*
X35845414Y15694586D01*
X35650874Y15403435D01*
X35582560Y15060000D01*
X35582560Y12060000D01*
X35650874Y11716565D01*
X35845414Y11425414D01*
X36136565Y11230874D01*
X36480000Y11162560D01*
X37580000Y11162560D01*
X37923435Y11230874D01*
X38214586Y11425414D01*
X38409126Y11716565D01*
X38477440Y12060000D01*
X38477440Y15060000D01*
X38461885Y15138198D01*
X41946105Y17644391D01*
X42355050Y17475000D01*
X43104950Y17475000D01*
X43797767Y17761974D01*
X44328026Y18292233D01*
X44615000Y18985050D01*
X44615000Y19734950D01*
X44328026Y20427767D01*
X43797767Y20958026D01*
X43665000Y21013020D01*
X43665000Y23642919D01*
X43683316Y23735001D01*
X43665000Y23827083D01*
X43665000Y23827086D01*
X43610750Y24099819D01*
X43404097Y24409097D01*
X43326031Y24461259D01*
X41577440Y26209849D01*
X41577440Y26560001D01*
X41509127Y26903436D01*
X41333822Y27165797D01*
X41418327Y27250301D01*
X41515000Y27483690D01*
X41515000Y28024250D01*
X41356250Y28183000D01*
X40432000Y28183000D01*
X40432000Y28163000D01*
X40178000Y28163000D01*
X40178000Y28183000D01*
X40158000Y28183000D01*
X40158000Y28437000D01*
X40178000Y28437000D01*
X40178000Y28457000D01*
X40432000Y28457000D01*
X40432000Y28437000D01*
X41356250Y28437000D01*
X41515000Y28595750D01*
X41515000Y28905000D01*
X42893046Y28905000D01*
X44229062Y29458396D01*
X44995000Y30224334D01*
X44995001Y909294D01*
X44991916Y886398D01*
X44995001Y837038D01*
X44995001Y795000D01*
X715000Y795000D01*
X715000Y4310000D01*
X2882560Y4310000D01*
X2882560Y1910000D01*
X2931843Y1662235D01*
X3072191Y1452191D01*
X3282235Y1311843D01*
X3530000Y1262560D01*
X5930000Y1262560D01*
X6177765Y1311843D01*
X6387809Y1452191D01*
X6528157Y1662235D01*
X6577440Y1910000D01*
X6577440Y4310000D01*
X6563756Y4378798D01*
X10373403Y4378798D01*
X10545390Y4049640D01*
X11372346Y3722974D01*
X12261363Y3737635D01*
X13014610Y4049640D01*
X13186597Y4378798D01*
X11780000Y5785395D01*
X10373403Y4378798D01*
X6563756Y4378798D01*
X6528157Y4557765D01*
X6387809Y4767809D01*
X6177765Y4908157D01*
X5930000Y4957440D01*
X5560819Y4957440D01*
X5724435Y5025212D01*
X5847570Y5312825D01*
X4730000Y6430395D01*
X3612430Y5312825D01*
X3735565Y5025212D01*
X3913436Y4957440D01*
X3530000Y4957440D01*
X3282235Y4908157D01*
X3072191Y4767809D01*
X2931843Y4557765D01*
X2882560Y4310000D01*
X715000Y4310000D01*
X715000Y6922266D01*
X2885293Y6922266D01*
X2906214Y6192557D01*
X3145212Y5615565D01*
X3432825Y5492430D01*
X4550395Y6610000D01*
X4909605Y6610000D01*
X6027175Y5492430D01*
X6314788Y5615565D01*
X6574707Y6297734D01*
X6572560Y6372654D01*
X9537974Y6372654D01*
X9552635Y5483637D01*
X9864640Y4730390D01*
X10193798Y4558403D01*
X11600395Y5965000D01*
X11959605Y5965000D01*
X13366202Y4558403D01*
X13695360Y4730390D01*
X14022026Y5557346D01*
X14016800Y5874250D01*
X18845000Y5874250D01*
X18845000Y3833691D01*
X18941673Y3600302D01*
X19120301Y3421673D01*
X19353690Y3325000D01*
X20444250Y3325000D01*
X20603000Y3483750D01*
X20603000Y6033000D01*
X20857000Y6033000D01*
X20857000Y3483750D01*
X21015750Y3325000D01*
X22106310Y3325000D01*
X22339699Y3421673D01*
X22518327Y3600302D01*
X22615000Y3833691D01*
X22615000Y5874250D01*
X22456250Y6033000D01*
X20857000Y6033000D01*
X20603000Y6033000D01*
X19003750Y6033000D01*
X18845000Y5874250D01*
X14016800Y5874250D01*
X14007365Y6446363D01*
X13695360Y7199610D01*
X13366202Y7371597D01*
X11959605Y5965000D01*
X11600395Y5965000D01*
X10193798Y7371597D01*
X9864640Y7199610D01*
X9537974Y6372654D01*
X6572560Y6372654D01*
X6553786Y7027443D01*
X6336838Y7551202D01*
X10373403Y7551202D01*
X11780000Y6144605D01*
X13186597Y7551202D01*
X13014610Y7880360D01*
X12187654Y8207026D01*
X11298637Y8192365D01*
X10545390Y7880360D01*
X10373403Y7551202D01*
X6336838Y7551202D01*
X6314788Y7604435D01*
X6027175Y7727570D01*
X4909605Y6610000D01*
X4550395Y6610000D01*
X3432825Y7727570D01*
X3145212Y7604435D01*
X2885293Y6922266D01*
X715000Y6922266D01*
X715000Y7907175D01*
X3612430Y7907175D01*
X4730000Y6789605D01*
X5847570Y7907175D01*
X5724435Y8194788D01*
X5042266Y8454707D01*
X4312557Y8433786D01*
X3735565Y8194788D01*
X3612430Y7907175D01*
X715000Y7907175D01*
X715000Y8486309D01*
X18845000Y8486309D01*
X18845000Y6445750D01*
X19003750Y6287000D01*
X20603000Y6287000D01*
X20603000Y8836250D01*
X20857000Y8836250D01*
X20857000Y6287000D01*
X22456250Y6287000D01*
X22615000Y6445750D01*
X22615000Y7674250D01*
X35595000Y7674250D01*
X35595000Y6083691D01*
X35691673Y5850302D01*
X35870301Y5671673D01*
X36103690Y5575000D01*
X36744250Y5575000D01*
X36903000Y5733750D01*
X36903000Y7833000D01*
X37157000Y7833000D01*
X37157000Y5733750D01*
X37315750Y5575000D01*
X37956310Y5575000D01*
X38189699Y5671673D01*
X38368327Y5850302D01*
X38465000Y6083691D01*
X38465000Y7674250D01*
X38306250Y7833000D01*
X37157000Y7833000D01*
X36903000Y7833000D01*
X35753750Y7833000D01*
X35595000Y7674250D01*
X22615000Y7674250D01*
X22615000Y8486309D01*
X22518327Y8719698D01*
X22339699Y8898327D01*
X22106310Y8995000D01*
X21015750Y8995000D01*
X20857000Y8836250D01*
X20603000Y8836250D01*
X20444250Y8995000D01*
X19353690Y8995000D01*
X19120301Y8898327D01*
X18941673Y8719698D01*
X18845000Y8486309D01*
X715000Y8486309D01*
X715000Y16760000D01*
X2782560Y16760000D01*
X2782560Y14360000D01*
X2831843Y14112235D01*
X2972191Y13902191D01*
X3182235Y13761843D01*
X3430000Y13712560D01*
X3824547Y13712560D01*
X3590556Y13615638D01*
X3074362Y13099444D01*
X2795000Y12425004D01*
X2795000Y11694996D01*
X3074362Y11020556D01*
X3590556Y10504362D01*
X4073401Y10304361D01*
X4125012Y10252750D01*
X4216231Y10116231D01*
X4757055Y9754864D01*
X5233969Y9660000D01*
X5233973Y9660000D01*
X5394999Y9627970D01*
X5556025Y9660000D01*
X10254233Y9660000D01*
X10513974Y9400259D01*
X11335431Y9060000D01*
X12224569Y9060000D01*
X13046026Y9400259D01*
X13482076Y9836309D01*
X35595000Y9836309D01*
X35595000Y8245750D01*
X35753750Y8087000D01*
X36903000Y8087000D01*
X36903000Y10186250D01*
X37157000Y10186250D01*
X37157000Y8087000D01*
X38306250Y8087000D01*
X38465000Y8245750D01*
X38465000Y9836309D01*
X38368327Y10069698D01*
X38189699Y10248327D01*
X37956310Y10345000D01*
X37315750Y10345000D01*
X37157000Y10186250D01*
X36903000Y10186250D01*
X36744250Y10345000D01*
X36103690Y10345000D01*
X35870301Y10248327D01*
X35691673Y10069698D01*
X35595000Y9836309D01*
X13482076Y9836309D01*
X13674741Y10028974D01*
X14015000Y10850431D01*
X14015000Y11739569D01*
X13674741Y12561026D01*
X13046026Y13189741D01*
X12224569Y13530000D01*
X11335431Y13530000D01*
X10513974Y13189741D01*
X10254233Y12930000D01*
X6255824Y12930000D01*
X6185638Y13099444D01*
X5669444Y13615638D01*
X5435453Y13712560D01*
X5830000Y13712560D01*
X6077765Y13761843D01*
X6287809Y13902191D01*
X6428157Y14112235D01*
X6477440Y14360000D01*
X6477440Y14990000D01*
X10254233Y14990000D01*
X10513974Y14730259D01*
X11335431Y14390000D01*
X12224569Y14390000D01*
X13046026Y14730259D01*
X13674741Y15358974D01*
X14015000Y16180431D01*
X14015000Y17069569D01*
X13674741Y17891026D01*
X13046026Y18519741D01*
X12224569Y18860000D01*
X11335431Y18860000D01*
X10513974Y18519741D01*
X10254233Y18260000D01*
X5856025Y18260000D01*
X5694999Y18292030D01*
X5533973Y18260000D01*
X5533969Y18260000D01*
X5057055Y18165136D01*
X4516231Y17803769D01*
X4425013Y17667252D01*
X4165201Y17407440D01*
X3430000Y17407440D01*
X3182235Y17358157D01*
X2972191Y17217809D01*
X2831843Y17007765D01*
X2782560Y16760000D01*
X715000Y16760000D01*
X715000Y19562825D01*
X3712430Y19562825D01*
X3835565Y19275212D01*
X4517734Y19015293D01*
X5247443Y19036214D01*
X5824435Y19275212D01*
X5947570Y19562825D01*
X4830000Y20680395D01*
X3712430Y19562825D01*
X715000Y19562825D01*
X715000Y21172266D01*
X2985293Y21172266D01*
X3006214Y20442557D01*
X3245212Y19865565D01*
X3532825Y19742430D01*
X4650395Y20860000D01*
X5009605Y20860000D01*
X6127175Y19742430D01*
X6414788Y19865565D01*
X6674707Y20547734D01*
X6653786Y21277443D01*
X6414788Y21854435D01*
X6127175Y21977570D01*
X5009605Y20860000D01*
X4650395Y20860000D01*
X3532825Y21977570D01*
X3245212Y21854435D01*
X2985293Y21172266D01*
X715000Y21172266D01*
X715000Y30827127D01*
X858396Y30480938D01*
X1880938Y29458396D01*
X3216954Y28905000D01*
X4663046Y28905000D01*
X5999062Y29458396D01*
X7021604Y30480938D01*
X7575000Y31816954D01*
X7575000Y33263046D01*
X7021604Y34599062D01*
X6331784Y35288882D01*
X21488014Y35322011D01*
X21488000Y35322001D01*
G36*
X39088396Y34599062D02*
X38535000Y33263046D01*
X38535000Y31816954D01*
X39088396Y30480938D01*
X39924334Y29645000D01*
X39603691Y29645000D01*
X39370302Y29548327D01*
X39215377Y29393403D01*
X39214586Y29394586D01*
X38923436Y29589127D01*
X38580001Y29657440D01*
X37929999Y29657440D01*
X37586564Y29589127D01*
X37295414Y29394586D01*
X37100873Y29103436D01*
X37032560Y28760001D01*
X37032560Y27859999D01*
X37100873Y27516564D01*
X37295414Y27225414D01*
X37320001Y27208986D01*
X37320001Y27156552D01*
X37245463Y27045000D01*
X35917086Y27045000D01*
X35825000Y27063317D01*
X35732914Y27045000D01*
X35569224Y27012440D01*
X35005000Y27012440D01*
X34757235Y26963157D01*
X34547191Y26822809D01*
X34406843Y26612765D01*
X34357560Y26365000D01*
X34357560Y25765000D01*
X34406843Y25517235D01*
X34465132Y25430000D01*
X34406843Y25342765D01*
X34357560Y25095000D01*
X34357560Y24495000D01*
X34406843Y24247235D01*
X34465132Y24160000D01*
X34406843Y24072765D01*
X34357560Y23825000D01*
X34357560Y23225000D01*
X34406843Y22977235D01*
X34465132Y22890000D01*
X34406843Y22802765D01*
X34357560Y22555000D01*
X34357560Y22154849D01*
X34308970Y22106259D01*
X34230904Y22054097D01*
X34178742Y21976031D01*
X34178741Y21976030D01*
X34024250Y21744818D01*
X33951683Y21380000D01*
X33965944Y21308304D01*
X33945414Y21294586D01*
X33880000Y21196687D01*
X33814586Y21294586D01*
X33523436Y21489127D01*
X33180001Y21557440D01*
X32529999Y21557440D01*
X32186564Y21489127D01*
X31895414Y21294586D01*
X31700873Y21003436D01*
X31632560Y20660001D01*
X31632560Y19759999D01*
X31700873Y19416564D01*
X31823310Y19233325D01*
X31762233Y19208026D01*
X31231974Y18677767D01*
X31176980Y18545000D01*
X30937289Y18545000D01*
X30976028Y18583739D01*
X31054097Y18635903D01*
X31260750Y18945181D01*
X31315000Y19217914D01*
X31333317Y19310000D01*
X31315000Y19402086D01*
X31315000Y21339386D01*
X31402765Y21356843D01*
X31612809Y21497191D01*
X31753157Y21707235D01*
X31802440Y21955000D01*
X31802440Y22555000D01*
X31753157Y22802765D01*
X31694868Y22890000D01*
X31753157Y22977235D01*
X31802440Y23225000D01*
X31802440Y23825000D01*
X31753157Y24072765D01*
X31700232Y24151972D01*
X31790000Y24368690D01*
X31790000Y24509250D01*
X31631250Y24668000D01*
X30507000Y24668000D01*
X30507000Y24648000D01*
X30253000Y24648000D01*
X30253000Y24668000D01*
X30233000Y24668000D01*
X30233000Y24922000D01*
X30253000Y24922000D01*
X30253000Y24942000D01*
X30507000Y24942000D01*
X30507000Y24922000D01*
X31631250Y24922000D01*
X31790000Y25080750D01*
X31790000Y25221310D01*
X31700232Y25438028D01*
X31753157Y25517235D01*
X31802440Y25765000D01*
X31802440Y26365000D01*
X31753157Y26612765D01*
X31612809Y26822809D01*
X31402765Y26963157D01*
X31252210Y26993104D01*
X31297767Y27011974D01*
X31828026Y27542233D01*
X31847869Y27590138D01*
X31936564Y27530873D01*
X32279999Y27462560D01*
X32930001Y27462560D01*
X33273436Y27530873D01*
X33564586Y27725414D01*
X33565377Y27726597D01*
X33720302Y27571673D01*
X33953691Y27475000D01*
X34369250Y27475000D01*
X34528000Y27633750D01*
X34528000Y28683000D01*
X34782000Y28683000D01*
X34782000Y27633750D01*
X34940750Y27475000D01*
X35356309Y27475000D01*
X35589698Y27571673D01*
X35768327Y27750301D01*
X35865000Y27983690D01*
X35865000Y28524250D01*
X35706250Y28683000D01*
X34782000Y28683000D01*
X34528000Y28683000D01*
X34508000Y28683000D01*
X34508000Y28937000D01*
X34528000Y28937000D01*
X34528000Y29986250D01*
X34782000Y29986250D01*
X34782000Y28937000D01*
X35706250Y28937000D01*
X35865000Y29095750D01*
X35865000Y29636310D01*
X35768327Y29869699D01*
X35589698Y30048327D01*
X35356309Y30145000D01*
X34940750Y30145000D01*
X34782000Y29986250D01*
X34528000Y29986250D01*
X34369250Y30145000D01*
X33953691Y30145000D01*
X33720302Y30048327D01*
X33565377Y29893403D01*
X33564586Y29894586D01*
X33273436Y30089127D01*
X32930001Y30157440D01*
X32279999Y30157440D01*
X31936564Y30089127D01*
X31645414Y29894586D01*
X31631713Y29874080D01*
X31297767Y30208026D01*
X30604950Y30495000D01*
X30378646Y30495000D01*
X30415000Y30677763D01*
X30415000Y30677766D01*
X30431357Y30759999D01*
X30415000Y30842232D01*
X30415000Y34777768D01*
X30431357Y34860001D01*
X30415000Y34942236D01*
X30415000Y34942237D01*
X30366552Y35185801D01*
X30262724Y35341190D01*
X39851483Y35362149D01*
X39088396Y34599062D01*
X39088396Y34599062D01*
G37*
X39088396Y34599062D02*
X38535000Y33263046D01*
X38535000Y31816954D01*
X39088396Y30480938D01*
X39924334Y29645000D01*
X39603691Y29645000D01*
X39370302Y29548327D01*
X39215377Y29393403D01*
X39214586Y29394586D01*
X38923436Y29589127D01*
X38580001Y29657440D01*
X37929999Y29657440D01*
X37586564Y29589127D01*
X37295414Y29394586D01*
X37100873Y29103436D01*
X37032560Y28760001D01*
X37032560Y27859999D01*
X37100873Y27516564D01*
X37295414Y27225414D01*
X37320001Y27208986D01*
X37320001Y27156552D01*
X37245463Y27045000D01*
X35917086Y27045000D01*
X35825000Y27063317D01*
X35732914Y27045000D01*
X35569224Y27012440D01*
X35005000Y27012440D01*
X34757235Y26963157D01*
X34547191Y26822809D01*
X34406843Y26612765D01*
X34357560Y26365000D01*
X34357560Y25765000D01*
X34406843Y25517235D01*
X34465132Y25430000D01*
X34406843Y25342765D01*
X34357560Y25095000D01*
X34357560Y24495000D01*
X34406843Y24247235D01*
X34465132Y24160000D01*
X34406843Y24072765D01*
X34357560Y23825000D01*
X34357560Y23225000D01*
X34406843Y22977235D01*
X34465132Y22890000D01*
X34406843Y22802765D01*
X34357560Y22555000D01*
X34357560Y22154849D01*
X34308970Y22106259D01*
X34230904Y22054097D01*
X34178742Y21976031D01*
X34178741Y21976030D01*
X34024250Y21744818D01*
X33951683Y21380000D01*
X33965944Y21308304D01*
X33945414Y21294586D01*
X33880000Y21196687D01*
X33814586Y21294586D01*
X33523436Y21489127D01*
X33180001Y21557440D01*
X32529999Y21557440D01*
X32186564Y21489127D01*
X31895414Y21294586D01*
X31700873Y21003436D01*
X31632560Y20660001D01*
X31632560Y19759999D01*
X31700873Y19416564D01*
X31823310Y19233325D01*
X31762233Y19208026D01*
X31231974Y18677767D01*
X31176980Y18545000D01*
X30937289Y18545000D01*
X30976028Y18583739D01*
X31054097Y18635903D01*
X31260750Y18945181D01*
X31315000Y19217914D01*
X31333317Y19310000D01*
X31315000Y19402086D01*
X31315000Y21339386D01*
X31402765Y21356843D01*
X31612809Y21497191D01*
X31753157Y21707235D01*
X31802440Y21955000D01*
X31802440Y22555000D01*
X31753157Y22802765D01*
X31694868Y22890000D01*
X31753157Y22977235D01*
X31802440Y23225000D01*
X31802440Y23825000D01*
X31753157Y24072765D01*
X31700232Y24151972D01*
X31790000Y24368690D01*
X31790000Y24509250D01*
X31631250Y24668000D01*
X30507000Y24668000D01*
X30507000Y24648000D01*
X30253000Y24648000D01*
X30253000Y24668000D01*
X30233000Y24668000D01*
X30233000Y24922000D01*
X30253000Y24922000D01*
X30253000Y24942000D01*
X30507000Y24942000D01*
X30507000Y24922000D01*
X31631250Y24922000D01*
X31790000Y25080750D01*
X31790000Y25221310D01*
X31700232Y25438028D01*
X31753157Y25517235D01*
X31802440Y25765000D01*
X31802440Y26365000D01*
X31753157Y26612765D01*
X31612809Y26822809D01*
X31402765Y26963157D01*
X31252210Y26993104D01*
X31297767Y27011974D01*
X31828026Y27542233D01*
X31847869Y27590138D01*
X31936564Y27530873D01*
X32279999Y27462560D01*
X32930001Y27462560D01*
X33273436Y27530873D01*
X33564586Y27725414D01*
X33565377Y27726597D01*
X33720302Y27571673D01*
X33953691Y27475000D01*
X34369250Y27475000D01*
X34528000Y27633750D01*
X34528000Y28683000D01*
X34782000Y28683000D01*
X34782000Y27633750D01*
X34940750Y27475000D01*
X35356309Y27475000D01*
X35589698Y27571673D01*
X35768327Y27750301D01*
X35865000Y27983690D01*
X35865000Y28524250D01*
X35706250Y28683000D01*
X34782000Y28683000D01*
X34528000Y28683000D01*
X34508000Y28683000D01*
X34508000Y28937000D01*
X34528000Y28937000D01*
X34528000Y29986250D01*
X34782000Y29986250D01*
X34782000Y28937000D01*
X35706250Y28937000D01*
X35865000Y29095750D01*
X35865000Y29636310D01*
X35768327Y29869699D01*
X35589698Y30048327D01*
X35356309Y30145000D01*
X34940750Y30145000D01*
X34782000Y29986250D01*
X34528000Y29986250D01*
X34369250Y30145000D01*
X33953691Y30145000D01*
X33720302Y30048327D01*
X33565377Y29893403D01*
X33564586Y29894586D01*
X33273436Y30089127D01*
X32930001Y30157440D01*
X32279999Y30157440D01*
X31936564Y30089127D01*
X31645414Y29894586D01*
X31631713Y29874080D01*
X31297767Y30208026D01*
X30604950Y30495000D01*
X30378646Y30495000D01*
X30415000Y30677763D01*
X30415000Y30677766D01*
X30431357Y30759999D01*
X30415000Y30842232D01*
X30415000Y34777768D01*
X30431357Y34860001D01*
X30415000Y34942236D01*
X30415000Y34942237D01*
X30366552Y35185801D01*
X30262724Y35341190D01*
X39851483Y35362149D01*
X39088396Y34599062D01*
G36*
X37345414Y25025414D02*
X37636564Y24830873D01*
X37979999Y24762560D01*
X38630001Y24762560D01*
X38973436Y24830873D01*
X39264586Y25025414D01*
X39330000Y25123313D01*
X39395001Y25026033D01*
X39395000Y24519537D01*
X39334149Y24478877D01*
X39289699Y24523327D01*
X39056310Y24620000D01*
X38515750Y24620000D01*
X38357000Y24461250D01*
X38357000Y23537000D01*
X38377000Y23537000D01*
X38377000Y23283000D01*
X38357000Y23283000D01*
X38357000Y23263000D01*
X38103000Y23263000D01*
X38103000Y23283000D01*
X38083000Y23283000D01*
X38083000Y23537000D01*
X38103000Y23537000D01*
X38103000Y24461250D01*
X37944250Y24620000D01*
X37403690Y24620000D01*
X37202440Y24536639D01*
X37202440Y25095000D01*
X37186527Y25175000D01*
X37245463Y25175000D01*
X37345414Y25025414D01*
X37345414Y25025414D01*
G37*
X37345414Y25025414D02*
X37636564Y24830873D01*
X37979999Y24762560D01*
X38630001Y24762560D01*
X38973436Y24830873D01*
X39264586Y25025414D01*
X39330000Y25123313D01*
X39395001Y25026033D01*
X39395000Y24519537D01*
X39334149Y24478877D01*
X39289699Y24523327D01*
X39056310Y24620000D01*
X38515750Y24620000D01*
X38357000Y24461250D01*
X38357000Y23537000D01*
X38377000Y23537000D01*
X38377000Y23283000D01*
X38357000Y23283000D01*
X38357000Y23263000D01*
X38103000Y23263000D01*
X38103000Y23283000D01*
X38083000Y23283000D01*
X38083000Y23537000D01*
X38103000Y23537000D01*
X38103000Y24461250D01*
X37944250Y24620000D01*
X37403690Y24620000D01*
X37202440Y24536639D01*
X37202440Y25095000D01*
X37186527Y25175000D01*
X37245463Y25175000D01*
X37345414Y25025414D01*
G04 #@! TD*
M02*
