M48
;DRILL file {KiCad (5.0.2)-1} date 02/10/19 20:46:44
;FORMAT={-:-/ absolute / metric / decimal}
FMAT,2
METRIC,TZ
T1C1.000
T2C1.100
T3C1.200
T4C2.050
T5C3.000
%
G90
G05
T1
X19.55Y32.36
X22.09Y32.36
X24.63Y32.36
X27.17Y32.36
T2
X14.18Y31.21
X30.23Y28.61
X32.83Y17.61
X42.73Y19.36
T3
X4.83Y24.36
X4.83Y20.86
X18.56Y18.43
X26.06Y18.43
X4.63Y15.56
X4.63Y12.06
X4.73Y6.61
X4.73Y3.11
T4
X11.78Y21.955
X11.78Y16.625
X11.78Y11.295
X11.78Y5.965
T5
X3.94Y32.54
X42.17Y32.54
T0
M30
