%TF.GenerationSoftware,KiCad,Pcbnew,(5.0.2)-1*%
%TF.CreationDate,2019-02-03T16:15:01+01:00*%
%TF.ProjectId,V1,56312e6b-6963-4616-945f-706362585858,rev?*%
%TF.SameCoordinates,PX5b8d800PY6453980*%
%TF.FileFunction,Plated,1,2,PTH,Drill*%
%TF.FilePolarity,Positive*%
%FSLAX46Y46*%
G04 Gerber Fmt 4.6, Leading zero omitted, Abs format (unit mm)*
G04 Created by KiCad (PCBNEW (5.0.2)-1) date 02/03/19 16:15:01*
%MOMM*%
%LPD*%
G01*
G04 APERTURE LIST*
%TA.AperFunction,ComponentDrill*%
%ADD10C,0.600000*%
%TD*%
%TA.AperFunction,ComponentDrill*%
%ADD11C,0.762000*%
%TD*%
%TA.AperFunction,ComponentDrill*%
%ADD12C,0.800000*%
%TD*%
%TA.AperFunction,ComponentDrill*%
%ADD13C,0.850000*%
%TD*%
%TA.AperFunction,ViaDrill*%
%ADD14C,1.000000*%
%TD*%
%TA.AperFunction,ComponentDrill*%
%ADD15C,1.000000*%
%TD*%
%TA.AperFunction,ComponentDrill*%
%ADD16C,1.100000*%
%TD*%
%TA.AperFunction,ComponentDrill*%
%ADD17C,1.200000*%
%TD*%
%TA.AperFunction,ComponentDrill*%
%ADD18C,1.300000*%
%TD*%
G04 APERTURE END LIST*
D10*
%TO.C,U6*%
X48450000Y58550000D03*
X48450000Y45850000D03*
X50990000Y58550000D03*
X50990000Y45850000D03*
X53530000Y58550000D03*
X53530000Y45850000D03*
X56070000Y58550000D03*
X56070000Y45850000D03*
X58610000Y58550000D03*
X58610000Y45850000D03*
X61150000Y58550000D03*
X61150000Y45850000D03*
D11*
%TO.C,U1*%
X38700000Y55880000D03*
X38700000Y53340000D03*
X38700000Y50800000D03*
X38700000Y48260000D03*
%TO.C,JP1*%
X102700000Y8430000D03*
X102700000Y3350000D03*
D12*
%TO.C,Y1*%
X100650000Y34530000D03*
X100650000Y29650000D03*
%TO.C,U3*%
X75305000Y60100000D03*
X75305000Y57560000D03*
X75305000Y55020000D03*
X75305000Y52480000D03*
X75305000Y49940000D03*
X75305000Y47400000D03*
X75305000Y44860000D03*
X75305000Y42320000D03*
X82925000Y60100000D03*
X82925000Y57560000D03*
X82925000Y55020000D03*
X82925000Y52480000D03*
X82925000Y49940000D03*
X82925000Y47400000D03*
X82925000Y44860000D03*
X82925000Y42320000D03*
D13*
%TO.C,U2*%
X51730000Y37400000D03*
X54270000Y37400000D03*
X56810000Y37400000D03*
X59350000Y37400000D03*
%TD*%
D14*
X1700000Y1800000D03*
X3400000Y21100000D03*
X3700000Y1800000D03*
X9500000Y15600000D03*
X12400000Y25500000D03*
X17700000Y32750000D03*
X21700000Y12600000D03*
X26650000Y17050000D03*
X29700000Y30300000D03*
X33600000Y21200000D03*
X35000000Y50600000D03*
X37200000Y17300000D03*
X41100000Y28750000D03*
X48400000Y55300000D03*
X56100000Y55450000D03*
X62850000Y55050000D03*
X67000000Y16500000D03*
X79000000Y25500000D03*
X81450000Y25500000D03*
X87300000Y12850000D03*
X93400000Y35800000D03*
X93800000Y21400000D03*
X93900000Y16700000D03*
X99750000Y49550000D03*
X101000000Y53450000D03*
X102150000Y40100000D03*
X102249990Y45910673D03*
X104350000Y56450000D03*
D15*
%TO.C,J1*%
X103700000Y24530000D03*
X103700000Y21990000D03*
X103700000Y19450000D03*
X103700000Y16910000D03*
X103700000Y14370000D03*
X103700000Y11830000D03*
%TO.C,J3*%
X12171000Y15659000D03*
X12171000Y11595000D03*
X15600000Y17564000D03*
X15600000Y13500000D03*
X15600000Y9436000D03*
X19029000Y15532000D03*
X19029000Y11341000D03*
D16*
%TO.C,DN_sw1*%
X88506000Y44846000D03*
X91046000Y47894000D03*
X91554000Y42560000D03*
X94094000Y45608000D03*
%TO.C,D5*%
X68600000Y12600000D03*
X68600000Y2440000D03*
%TO.C,UP_sw1*%
X88706000Y57446000D03*
X91246000Y60494000D03*
X91754000Y55160000D03*
X94294000Y58208000D03*
D17*
%TO.C,J2*%
X50900000Y6400000D03*
X50900000Y2900000D03*
D18*
%TO.C,D9*%
X44800000Y9700000D03*
X57500000Y9700000D03*
%TO.C,D8*%
X44600000Y3500000D03*
X57300000Y3500000D03*
%TO.C,D7*%
X44700000Y16100000D03*
X57400000Y16100000D03*
%TO.C,D3*%
X63000000Y15800000D03*
X63000000Y3100000D03*
M02*
