M48
;DRILL file {KiCad (5.0.2)-1} date 02/11/19 17:40:28
;FORMAT={-:-/ absolute / metric / decimal}
FMAT,2
METRIC,TZ
T1C0.762
T2C0.800
T3C0.850
T4C0.900
T5C1.100
T6C1.500
T7C1.000
T8C2.000
T9C3.000
T10C3.200
%
G90
G05
T1
X73.672Y43.732
X73.672Y38.652
T2
X29.984Y34.08
X29.984Y31.54
X29.984Y29.
X29.984Y26.46
X37.604Y34.08
X37.604Y31.54
X37.604Y29.
X37.604Y26.46
T3
X50.25Y64.35
X52.79Y64.35
X55.33Y64.35
X57.87Y64.35
X46.281Y36.825
X48.821Y36.825
X51.361Y36.825
X53.901Y36.825
X56.441Y36.825
X58.981Y36.825
X61.648Y36.952
T4
X53.606Y23.55
X53.606Y9.05
X56.146Y23.55
X56.146Y9.05
X58.686Y23.55
X58.686Y9.05
X61.226Y23.55
X61.226Y9.05
X63.766Y23.55
X63.766Y9.05
X66.306Y23.55
X66.306Y9.05
X68.846Y23.55
X68.846Y9.05
X71.386Y23.55
X71.386Y9.05
X73.926Y23.55
X73.926Y9.05
X76.466Y23.55
X76.466Y9.05
X79.006Y23.55
X79.006Y9.05
X81.546Y23.55
X81.546Y9.05
X84.086Y23.55
X84.086Y9.05
X86.626Y23.55
X86.626Y9.05
X89.166Y23.55
X89.166Y9.05
X91.706Y23.55
X91.706Y9.05
X94.246Y23.55
X94.246Y9.05
X96.786Y23.55
X96.786Y9.05
X99.326Y23.55
X99.326Y9.05
X101.866Y23.55
X101.866Y9.05
T5
X1.282Y21.634
X1.97Y11.99
X4.33Y20.371
X5.346Y5.124
X7.378Y10.966
X9.41Y9.442
X11.95Y8.172
X12.204Y33.812
X12.639Y5.528
X14.49Y31.286
X22.11Y32.81
X23.888Y14.522
X26.428Y2.584
X26.682Y27.222
X26.682Y20.618
X30.536Y40.091
X33.67Y39.387
X36.41Y12.96
X37.3Y3.9
X43.954Y41.446
X44.476Y33.572
X49.542Y12.236
X52.59Y11.982
X53.352Y47.034
X57.416Y59.734
X58.686Y31.286
X59.448Y4.362
X61.48Y57.064
X61.715Y15.298
X67.068Y4.87
X69.281Y14.498
X73.294Y47.266
X84.086Y14.014
X86.626Y15.03
X87.642Y27.73
X89.831Y27.506
X97.802Y26.714
X102.547Y58.761
X104.16Y45.939
X104.66Y54.146
X87.871Y45.608
X90.665Y43.068
X91.808Y47.513
X94.729Y44.592
X88.071Y58.208
X90.865Y55.668
X92.008Y60.113
X94.929Y57.192
T6
X12.171Y15.659
X12.171Y11.595
X15.6Y17.564
X15.6Y13.5
X15.6Y9.436
X19.029Y15.532
X19.029Y11.341
T7
X100.85Y37.55
X100.85Y33.15
T8
X39.255Y17.062
X46.621Y17.062
X28.457Y8.79
X35.823Y8.79
T9
X8.6Y6.5
X22.6Y20.5
T10
X39.5Y64.1
X39.5Y37.1
X68.5Y64.1
X68.5Y37.1
X39.55Y64.1
X39.55Y37.1
X68.55Y64.1
X68.55Y37.1
T0
M30
