M48
;DRILL file {KiCad (5.0.2)-1} date 02/03/19 16:24:35
;FORMAT={-:-/ absolute / metric / decimal}
FMAT,2
METRIC,TZ
T1C0.600
T2C0.762
T3C0.800
T4C0.850
T5C1.000
T6C1.100
T7C1.200
T8C1.300
T9C0.700
T10C3.200
%
G90
G05
T1
X48.45Y58.55
X48.45Y45.85
X50.99Y58.55
X50.99Y45.85
X53.53Y58.55
X53.53Y45.85
X56.07Y58.55
X56.07Y45.85
X58.61Y58.55
X58.61Y45.85
X61.15Y58.55
X61.15Y45.85
T2
X38.7Y55.88
X38.7Y53.34
X38.7Y50.8
X38.7Y48.26
X102.7Y8.43
X102.7Y3.35
T3
X100.65Y34.53
X100.65Y29.65
X75.305Y60.1
X75.305Y57.56
X75.305Y55.02
X75.305Y52.48
X75.305Y49.94
X75.305Y47.4
X75.305Y44.86
X75.305Y42.32
X82.925Y60.1
X82.925Y57.56
X82.925Y55.02
X82.925Y52.48
X82.925Y49.94
X82.925Y47.4
X82.925Y44.86
X82.925Y42.32
T4
X51.73Y37.4
X54.27Y37.4
X56.81Y37.4
X59.35Y37.4
T5
X1.7Y1.8
X3.4Y21.1
X3.7Y1.8
X9.5Y15.6
X12.4Y25.5
X17.7Y32.75
X21.7Y12.6
X26.65Y17.05
X29.7Y30.3
X33.6Y21.2
X35.Y50.6
X37.2Y17.3
X41.1Y28.75
X48.4Y55.3
X56.1Y55.45
X62.85Y55.05
X67.Y16.5
X79.Y25.5
X81.45Y25.5
X87.3Y12.85
X93.4Y35.8
X93.8Y21.4
X93.9Y16.7
X99.75Y49.55
X101.Y53.45
X102.15Y40.1
X102.25Y45.911
X104.35Y56.45
X103.7Y24.53
X103.7Y21.99
X103.7Y19.45
X103.7Y16.91
X103.7Y14.37
X103.7Y11.83
X12.171Y15.659
X12.171Y11.595
X15.6Y17.564
X15.6Y13.5
X15.6Y9.436
X19.029Y15.532
X19.029Y11.341
T6
X88.506Y44.846
X91.046Y47.894
X91.554Y42.56
X94.094Y45.608
X68.6Y12.6
X68.6Y2.44
X88.706Y57.446
X91.246Y60.494
X91.754Y55.16
X94.294Y58.208
T7
X50.9Y6.4
X50.9Y2.9
T8
X44.6Y3.5
X57.3Y3.5
X44.7Y16.1
X57.4Y16.1
X63.Y15.8
X63.Y3.1
X44.8Y9.7
X57.5Y9.7
T10
X41.1Y64.65
X41.1Y37.65
X70.1Y64.65
X70.1Y37.65
T9
X6.81Y17.393G85X8.134Y19.513
G05
X24.263Y9.607G85X22.939Y7.487
G05
T0
M30
