M48
;DRILL file {KiCad (5.0.2)-1} date 02/23/19 20:35:45
;FORMAT={-:-/ absolute / metric / decimal}
FMAT,2
METRIC,TZ
T1C0.800
T2C0.850
T3C0.900
T4C1.100
T5C1.500
T6C1.000
T7C2.000
T8C3.200
%
G90
G05
T1
X12.001Y34.283
X12.001Y26.663
X14.541Y34.283
X14.541Y26.663
X17.081Y34.283
X17.081Y26.663
X19.621Y34.283
X19.621Y26.663
T2
X45.029Y37.379
X47.569Y37.379
X50.109Y37.379
X52.649Y37.379
X55.189Y37.379
X57.729Y37.379
X60.396Y37.506
X49.065Y64.819
X51.605Y64.819
X54.145Y64.819
X56.685Y64.819
T3
X54.012Y25.546
X54.012Y10.814
X56.552Y25.546
X56.552Y10.814
X59.092Y25.546
X59.092Y10.814
X61.632Y25.546
X61.632Y10.814
X64.172Y25.546
X64.172Y10.814
X66.712Y25.546
X66.712Y10.814
X69.252Y25.546
X69.252Y10.814
X71.792Y25.546
X71.792Y10.814
X74.332Y25.546
X74.332Y10.814
X76.872Y25.546
X76.872Y10.814
X79.412Y25.546
X79.412Y10.814
X81.952Y25.546
X81.952Y10.814
X84.492Y25.546
X84.492Y10.814
X87.032Y25.546
X87.032Y10.814
X89.572Y25.546
X89.572Y10.814
X92.112Y25.546
X92.112Y10.814
X94.652Y25.546
X94.652Y10.814
X97.192Y25.546
X97.192Y10.814
X99.732Y25.546
X99.732Y10.814
X102.272Y25.546
X102.272Y10.814
T4
X2.577Y34.918
X3.568Y7.689
X10.147Y9.137
X10.868Y3.017
X12.661Y7.029
X12.712Y23.412
X15.807Y3.019
X22.44Y13.303
X30.671Y50.064
X37.147Y32.327
X44.716Y17.113
X44.818Y42.716
X45.757Y50.615
X49.212Y26.714
X54.444Y59.836
X61.023Y56.457
X65.646Y41.649
X67.735Y20.756
X70.751Y41.167
X75.704Y16.934
X82.079Y4.895
X84.416Y29.33
X87.159Y29.229
X102.044Y54.959
X102.466Y45.929
X104.405Y19.171
X104.405Y14.828
X88.071Y58.208
X90.865Y55.668
X92.008Y60.113
X94.929Y57.192
X87.871Y45.608
X90.665Y43.068
X91.808Y47.513
X94.729Y44.592
T5
X12.179Y15.716
X12.179Y11.652
X15.608Y17.621
X15.608Y13.557
X15.608Y9.493
X19.037Y15.589
X19.037Y11.398
T6
X99.682Y38.668
X99.682Y34.268
T7
X49.161Y49.853
X56.527Y49.853
X32.981Y25.165
X32.981Y17.799
T8
X38.298Y64.654
X38.298Y37.654
X67.298Y64.654
X67.298Y37.654
X38.315Y64.569
X38.315Y37.569
X67.315Y64.569
X67.315Y37.569
T0
M30
